<svg id="Capa_1" enable-background="new 0 0 512 512" height="512" viewBox="0 0 512 512" width="512" xmlns="http://www.w3.org/2000/svg"><g><g><path d="m10 76h492v240h-492z" fill="#cef"/><path d="m226 316h60v186h-60z" fill="#fff"/></g><g><path d="m196 126h-123c-5.523 0-10 4.477-10 10v120c0 5.523 4.477 10 10 10h123c5.523 0 10-4.477 10-10v-120c0-5.523-4.477-10-10-10z" fill="#fff"/><g fill="#80aaff"><path d="m256 126c-5.523 0-10 4.477-10 10s4.477 10 10 10h183c5.523 0 10-4.477 10-10s-4.477-10-10-10z"/><path d="m439 186h-183c-5.523 0-10 4.477-10 10s4.477 10 10 10h183c5.523 0 10-4.477 10-10s-4.477-10-10-10z"/><path d="m439 246h-183c-5.523 0-10 4.477-10 10s4.477 10 10 10h183c5.523 0 10-4.477 10-10s-4.477-10-10-10z"/><path d="m502 20c5.523 0 10-4.477 10-10s-4.477-10-10-10h-126c-5.523 0-10 4.477-10 10s4.477 10 10 10h53v46h-163v-46h50c5.523 0 10-4.477 10-10s-4.477-10-10-10h-120c-5.523 0-10 4.477-10 10s4.477 10 10 10h50v46h-163v-46h53c5.523 0 10-4.477 10-10s-4.477-10-10-10h-126c-5.523 0-10 4.477-10 10s4.477 10 10 10h53v46h-53c-5.523 0-10 4.477-10 10v240c0 5.523 4.477 10 10 10h116v40h-53c-5.523 0-10 4.477-10 10s4.477 10 10 10h143v116c0 5.523 4.477 10 10 10h60c5.523 0 10-4.477 10-10v-116h143c5.523 0 10-4.477 10-10s-4.477-10-10-10h-53v-40h116c5.523 0 10-4.477 10-10v-240c0-5.523-4.477-10-10-10h-53v-46zm-356 346v-40h70v40zm130 126h-40v-166h40zm90-126h-70v-40h70zm126-60h-472v-220h472z"/></g></g></g></svg>