<svg id="Capa_1" enable-background="new 0 0 512 512" height="512" viewBox="0 0 512 512" width="512" xmlns="http://www.w3.org/2000/svg"><g><g><path d="m502 136h-60v-40h-120v40h-137.51c-12.397-34.875-45.36-60-84.49-60-49.706 0-90 40.294-90 90s40.294 90 90 90c39.13 0 72.092-25.125 84.49-60h317.51z" fill="#ffe6b3"/><path d="m130 436h-60v-100l30-20 30 20z" fill="#ffcd69"/><circle cx="100" cy="166" fill="#fff" r="30"/></g><g><g><path d="m90 265.501v45.147l-25.547 17.032c-2.782 1.854-4.453 4.976-4.453 8.32v100c0 5.523 4.478 10 10 10h60c5.522 0 10-4.477 10-10v-100c0-3.344-1.671-6.466-4.453-8.32l-25.547-17.032v-45.171c35.558-3.629 66.793-26.385 81.279-59.478h310.721c5.522 0 10-4.477 10-10v-60c0-5.523-4.478-10-10-10h-50v-29.999c0-5.523-4.478-10-10-10h-120c-5.522 0-10 4.477-10 10v30h-120.721c-15.831-36.165-51.66-60-91.279-60-55.141 0-100 44.86-100 100 0 51.765 39.537 94.468 90 99.501zm30 160.499h-40v-84.648l20-13.333 20 13.333zm-20-240c-11.028 0-20-8.972-20-20s8.972-20 20-20 20 8.972 20 20-8.972 20-20 20zm0-100c33.557 0 63.725 21.439 75.067 53.35 1.418 3.987 5.191 6.65 9.423 6.65h137.51c5.522 0 10-4.477 10-10v-30h40v30c0 5.523 4.478 10 10 10s10-4.477 10-10v-30h40v30c0 5.523 4.478 10 10 10h50v40h-307.51c-4.231 0-8.005 2.664-9.423 6.65-10.202 28.702-35.638 48.923-65.067 52.701v-40.617c17.233-4.452 30-20.13 30-38.734 0-22.056-17.944-40-40-40s-40 17.944-40 40c0 18.604 12.767 34.282 30 38.734v40.619c-39.406-4.94-70-38.629-70-79.353 0-44.112 35.888-80 80-80z" fill="#ffa96b"/></g></g></g></svg>