<svg id="Capa_1" enable-background="new 0 0 512 512" height="512" viewBox="0 0 512 512" width="512" xmlns="http://www.w3.org/2000/svg"><g><g><path d="m90 10-80 80v412h312v-492z" fill="#cef"/><path d="m10 90h80v-80" fill="#9df"/><g><g><path d="m382 136h60v240h-60z" fill="#cef"/><g fill="#fff"><path d="m382 406c0 32.456 10.527 70.036 30 96 19.473-25.964 30-63.544 30-96v-30h-60z"/><path d="m412 76c-16.568 0-30 13.431-30 30v30h60v-30c0-16.569-13.431-30-30-30z"/></g></g></g></g><g><g fill="#80aaff"><path d="m10 512h312c5.523 0 10-4.477 10-10v-492c0-5.523-4.477-10-10-10h-232c-2.618 0-5.116 1.035-6.966 2.834-.034.033-.072.061-.105.095l-80 80c-1.829 1.829-2.929 4.387-2.929 7.071v412c0 5.523 4.477 10 10 10zm302-20h-292v-392h70c5.523 0 10-4.477 10-10v-70h212zm-277.858-412 45.858-45.858v45.858z"/><path d="m462 126h-10v-20c0-22.056-17.944-40-40-40s-40 17.944-40 40v300c0 36.598 12.262 75.682 32 102 1.889 2.518 4.853 4 8 4s6.111-1.482 8-4c19.738-26.318 32-65.402 32-102v-260h10c16.542 0 30 13.458 30 30v80c0 5.523 4.477 10 10 10s10-4.477 10-10v-80c0-27.57-22.43-50-50-50zm-50-40c11.028 0 20 8.972 20 20v20h-40v-20c0-11.028 8.972-20 20-20zm0 397.719c-12.521-22.079-20-50.596-20-77.719v-20h40v20c0 27.123-7.479 55.64-20 77.719zm20-117.719h-40v-220h40z"/><path d="m76 126c-5.523 0-10 4.477-10 10s4.477 10 10 10h180c5.523 0 10-4.477 10-10s-4.477-10-10-10z"/><path d="m196 206c5.523 0 10-4.477 10-10s-4.477-10-10-10h-60c-5.523 0-10 4.477-10 10s4.477 10 10 10z"/><path d="m256 246h-180c-5.523 0-10 4.477-10 10s4.477 10 10 10h180c5.523 0 10-4.477 10-10s-4.477-10-10-10z"/><path d="m256 306h-180c-5.523 0-10 4.477-10 10s4.477 10 10 10h180c5.523 0 10-4.477 10-10s-4.477-10-10-10z"/><path d="m256 426h-15.816c-2.621-2.696-4.803-5.044-6.65-7.032-6.501-6.995-10.805-11.625-17.685-11.625-.027 0-.054 0-.081 0-6.854.036-10.882 4.463-16.98 11.165-1.883 2.069-4.107 4.514-6.837 7.344-7.037-.55-9.394-2.496-10.122-3.409-2.2-2.757-.707-9.319.185-13.241.965-4.241 2.761-12.134-4.512-16.15-7.505-4.145-13.649 1.645-20.154 7.772-5.269 4.963-13.364 13.049-25.489 25.175h-15.859c-5.523 0-10 4.477-10 10s4.477 10 10 10h20c2.652 0 5.196-1.054 7.071-2.929 5.696-5.696 12.946-12.954 18.322-18.276.771 3.458 2.245 6.919 4.803 10.124 5.867 7.354 15.895 11.082 29.804 11.082 2.652 0 5.196-1.054 7.071-2.929 4.503-4.503 7.833-8.162 10.508-11.102.771-.848 1.582-1.738 2.337-2.55.942.985 1.983 2.105 2.969 3.165 2.598 2.795 5.832 6.274 10.044 10.487 1.875 1.875 4.419 2.929 7.071 2.929h20c5.523 0 10-4.477 10-10s-4.477-10-10-10z"/></g></g></g></svg>