<svg id="Capa_1" enable-background="new 0 0 512 512" height="512" viewBox="0 0 512 512" width="512" xmlns="http://www.w3.org/2000/svg"><g><g><path d="m374.4 434.4c-38 38-90.399 67.6-148.4 67.6-116 0-216-100-216-216s100-210 216-210v210z" fill="#ccffb3"/><path d="m502 226h-216v-216c116 0 216 100 216 216z" fill="#fff"/><path d="m436 286c0 58-23.6 110.4-61.6 148.4l-148.4-148.4z" fill="#9affbc"/></g><g><g fill="#53d0a6"><path d="m0 286c0 121.416 104.37 226 226 226 54.777 0 109.99-25.048 155.471-70.529.001-.001.001-.001.001-.001 41.611-41.611 64.528-96.824 64.528-155.47 0-5.523-4.477-10-10-10h-200v-200c0-5.523-4.477-10-10-10-119.592 0-226 96.581-226 220zm374.229 134.086-124.087-124.096h175.612c-2.275 46.257-20.308 89.684-51.525 124.096zm-158.229-333.841v199.755c0 2.531 1.011 5.146 2.919 7.06.003.003.006.007.009.011l141.19 141.189c-26.228 24.236-73.468 57.74-134.118 57.74-109.738 0-206-96.262-206-206 0-105.162 88.757-194.495 196-199.755z"/><path d="m286 0c-5.523 0-10 4.477-10 10v216c0 5.523 4.477 10 10 10h216c5.523 0 10-4.477 10-10 0-121.528-104.423-226-226-226zm10 216v-195.734c102.196 5.444 190.29 93.538 195.734 195.734z"/></g></g></g></svg>