<svg id="Capa_1" enable-background="new 0 0 512 512" height="512" viewBox="0 0 512 512" width="512" xmlns="http://www.w3.org/2000/svg"><g><g><path d="m482 406h-452c-11.046 0-20-8.954-20-20v-260c0-11.046 8.954-20 20-20h452c11.046 0 20 8.954 20 20v260c0 11.046-8.954 20-20 20z" fill="#ccf"/></g><g><path d="m482 96h-452c-16.542 0-30 13.458-30 30v260c0 16.542 13.458 30 30 30h452c16.542 0 30-13.458 30-30v-260c0-16.542-13.458-30-30-30zm10 290c0 5.514-4.486 10-10 10h-452c-5.514 0-10-4.486-10-10v-260c0-5.514 4.486-10 10-10h452c5.514 0 10 4.486 10 10z" fill="#b578d3"/><path d="m76 236h120c5.522 0 10-4.477 10-10v-60c0-5.523-4.478-10-10-10h-120c-5.522 0-10 4.477-10 10v60c0 5.523 4.478 10 10 10z" fill="#fff"/><g fill="#b578d3"><path d="m76 296h20c5.522 0 10-4.477 10-10s-4.478-10-10-10h-20c-5.522 0-10 4.477-10 10s4.478 10 10 10z"/><path d="m156 276c-5.522 0-10 4.477-10 10s4.478 10 10 10h20c5.522 0 10-4.477 10-10s-4.478-10-10-10z"/><path d="m236 296h20c5.522 0 10-4.477 10-10s-4.478-10-10-10h-20c-5.522 0-10 4.477-10 10s4.478 10 10 10z"/><path d="m256.001 336h-180.001c-5.522 0-10 4.477-10 10s4.478 10 10 10h180.001c5.522 0 10-4.477 10-10s-4.478-10-10-10z"/><path d="m462 156h-126c-5.522 0-10 4.477-10 10s4.478 10 10 10h126c5.522 0 10-4.477 10-10s-4.478-10-10-10z"/></g></g></g></svg>