<svg id="Capa_1" enable-background="new 0 0 512 512" height="512" viewBox="0 0 512 512" width="512" xmlns="http://www.w3.org/2000/svg"><g><g><circle cx="126" cy="40" fill="#b9f" r="30"/><circle cx="386" cy="40" fill="#b9f" r="30"/><path d="m256 70c-44.183 0-80 35.817-80 80 0 14.571 3.896 28.233 10.703 40h138.595c6.806-11.767 10.702-25.429 10.702-40 0-44.183-35.817-80-80-80z" fill="#fff"/><path d="m76 190h360v60l-150 100v112l-60 40v-152l-150-100z" fill="#ccf"/></g><g><g fill="#b578d3"><path d="m221.281 510.817c3.244 1.736 7.189 1.555 10.266-.497l60-40c2.782-1.854 4.453-4.977 4.453-8.32v-106.648l145.547-97.032c2.782-1.854 4.453-4.977 4.453-8.32v-60c0-5.523-4.477-10-10-10h-95.146c3.383-9.587 5.146-19.737 5.146-30 0-49.626-40.374-90-90-90s-90 40.374-90 90c0 10.262 1.764 20.413 5.146 30h-95.146c-5.523 0-10 4.477-10 10v60c0 3.343 1.671 6.466 4.453 8.32l145.547 97.032v146.648c0 3.688 2.03 7.077 5.281 8.817zm-35.281-360.817c0-38.598 31.402-70 70-70s70 31.402 70 70c0 10.414-2.325 20.676-6.747 30h-126.506c-4.421-9.324-6.747-19.586-6.747-30zm-76.972 110h86.972c5.523 0 10-4.477 10-10s-4.477-10-10-10h-110v-40h340v40h-110c-5.523 0-10 4.477-10 10s4.477 10 10 10h86.972l-122.519 81.68c-2.782 1.854-4.453 4.977-4.453 8.32v106.648l-40 26.667v-133.315c0-3.343-1.671-6.466-4.453-8.32z"/><path d="m166 40c0-22.056-17.944-40-40-40s-40 17.944-40 40 17.944 40 40 40 40-17.944 40-40zm-60 0c0-11.028 8.972-20 20-20s20 8.972 20 20-8.972 20-20 20-20-8.972-20-20z"/><path d="m426 40c0-22.056-17.944-40-40-40s-40 17.944-40 40 17.944 40 40 40 40-17.944 40-40zm-60 0c0-11.028 8.972-20 20-20s20 8.972 20 20-8.972 20-20 20-20-8.972-20-20z"/></g></g></g></svg>