<svg id="Capa_1" enable-background="new 0 0 512 512" height="512" viewBox="0 0 512 512" width="512" xmlns="http://www.w3.org/2000/svg"><g><g><g><g><path d="m406 10h-300c16.6 0 30 13.4 30 30v462h300v-462c0-16.6-13.4-30-30-30z" fill="#ccffb3"/></g></g><path d="m136 40v150h-60v-150c0-16.6 13.4-30 30-30s30 13.4 30 30z" fill="#9affbc"/><path d="m316 130v-60h-60v120h-60v66h180v-126z" fill="#fff"/></g><g><g fill="#53d0a6"><path d="m196 266h180c5.522 0 10-4.477 10-10v-126c0-5.523-4.478-10-10-10h-50v-50c0-5.523-4.478-10-10-10h-60c-5.522 0-10 4.477-10 10v110h-50c-5.523 0-10 4.477-10 10v66c0 5.523 4.477 10 10 10zm170-126v106h-40v-106zm-100-60h40v166h-40zm-60 120h40v46h-40z"/><path d="m196 326h20c5.523 0 10-4.477 10-10s-4.477-10-10-10h-20c-5.523 0-10 4.477-10 10s4.477 10 10 10z"/><path d="m376 306h-100c-5.522 0-10 4.477-10 10s4.478 10 10 10h100c5.522 0 10-4.477 10-10s-4.478-10-10-10z"/><path d="m196 386h20c5.523 0 10-4.477 10-10s-4.477-10-10-10h-20c-5.523 0-10 4.477-10 10s4.477 10 10 10z"/><path d="m376 366h-100c-5.522 0-10 4.477-10 10s4.478 10 10 10h100c5.522 0 10-4.477 10-10s-4.478-10-10-10z"/><path d="m196 446h20c5.523 0 10-4.477 10-10s-4.477-10-10-10h-20c-5.523 0-10 4.477-10 10s4.477 10 10 10z"/><path d="m376 426h-100c-5.522 0-10 4.477-10 10s4.478 10 10 10h100c5.522 0 10-4.477 10-10s-4.478-10-10-10z"/><path d="m66 40v150c0 5.523 4.477 10 10 10h50v302c0 5.523 4.477 10 10 10h300c5.522 0 10-4.477 10-10v-462c0-22.056-17.944-40-40-40h-300c-22.056 0-40 17.944-40 40zm360 0v452h-280c0-10.565 0-430.429 0-452 0-7.283-1.966-14.112-5.381-20h265.381c11.028 0 20 8.972 20 20zm-340 0c0-11.028 8.972-20 20-20s20 8.972 20 20v140h-40z"/></g></g></g></svg>