<svg id="Capa_1" enable-background="new 0 0 512 512" height="512" viewBox="0 0 512 512" width="512" xmlns="http://www.w3.org/2000/svg"><g><g><path d="m462 46h-412c-22.091 0-40 17.909-40 40v160c0 22.091 17.909 40 40 40h412c22.091 0 40-17.909 40-40v-160c0-22.091-17.909-40-40-40z" fill="#ffe6b3"/><path d="m256 186-80 180h40v100h80v-100h40z" fill="#fff"/></g><g><path d="m195.768 137.832-32.641-9.169-18.807-28.209c-1.854-2.783-4.976-4.454-8.32-4.454s-6.466 1.671-8.32 4.453l-18.807 28.209-32.64 9.169c-3.22.904-5.773 3.357-6.807 6.537-1.033 3.18-.408 6.666 1.664 9.29l21.017 26.603-1.367 33.877c-.135 3.341 1.409 6.528 4.114 8.494s6.215 2.448 9.349 1.288l31.797-11.769 31.797 11.769c3.161 1.17 6.665.66 9.349-1.288 2.705-1.965 4.249-5.153 4.114-8.494l-1.367-33.877 21.018-26.603c2.072-2.624 2.697-6.109 1.664-9.289-1.034-3.18-3.588-5.633-6.807-6.537z" fill="#fff"/><path d="m435.768 137.832-32.641-9.169-18.807-28.209c-1.854-2.783-4.976-4.454-8.32-4.454s-6.466 1.671-8.32 4.453l-18.807 28.209-32.64 9.169c-3.22.904-5.773 3.357-6.807 6.537-1.033 3.18-.408 6.666 1.664 9.29l21.017 26.603-1.367 33.877c-.135 3.341 1.409 6.528 4.114 8.494 2.706 1.965 6.215 2.448 9.349 1.288l31.797-11.769 31.797 11.769c3.161 1.17 6.665.66 9.349-1.288 2.705-1.965 4.249-5.153 4.114-8.494l-1.367-33.877 21.018-26.603c2.072-2.624 2.697-6.109 1.664-9.289-1.034-3.18-3.588-5.633-6.807-6.537z" fill="#fff"/><path d="m462 36h-412c-27.57 0-50 22.43-50 50v160c0 27.57 22.43 50 50 50h146.168l-29.306 65.938c-1.375 3.093-1.092 6.672.753 9.511s5 4.551 8.385 4.551h30v90c0 5.523 4.478 10 10 10h80c5.522 0 10-4.477 10-10v-90h30c3.385 0 6.54-1.712 8.385-4.551s2.128-6.417.753-9.511l-29.306-65.938h146.168c27.57 0 50-22.43 50-50v-160c0-27.57-22.43-50-50-50zm-166 320c-5.522 0-10 4.477-10 10v90h-60v-90c0-5.523-4.478-10-10-10h-24.612c8.905-20.036 54.92-123.57 64.612-145.378 19.177 43.148 56.767 127.726 64.612 145.378zm196-110c0 16.542-13.458 30-30 30h-155.057l-41.805-94.062c-1.605-3.611-5.186-5.938-9.138-5.938s-7.533 2.327-9.138 5.938l-41.805 94.062h-155.057c-16.542 0-30-13.458-30-30v-160c0-16.542 13.458-30 30-30h412c16.542 0 30 13.458 30 30z" fill="#ffa96b"/></g></g></svg>