<svg id="Capa_1" enable-background="new 0 0 512.001 512.001" height="512" viewBox="0 0 512.001 512.001" width="512" xmlns="http://www.w3.org/2000/svg"><g><g><path d="m10 136h492v300h-492z" fill="#ccf"/><path d="m116 256h60v60h-60z" fill="#b9f"/><path d="m296 196c-12.619 25.237-36.183 43.237-63.852 48.77l-56.147 11.23v60l56.148 11.229c27.669 5.534 51.233 23.532 63.852 48.77z" fill="#fff"/></g><g><g fill="#b578d3"><path d="m502 126h-221.857l42.929-42.929c3.905-3.905 3.905-10.237 0-14.143-3.905-3.904-10.237-3.904-14.143 0l-52.929 52.929-118.928-118.929c-3.905-3.904-10.237-3.904-14.143 0-3.905 3.905-3.905 10.237 0 14.143l108.929 108.929h-221.858c-5.523 0-10 4.477-10 10v300c0 5.523 4.477 10 10 10h88.246l-30.798 50.817c-2.863 4.723-1.354 10.872 3.369 13.734 4.723 2.864 10.874 1.352 13.735-3.369l37.081-61.182h268.735l37.081 61.183c2.855 4.712 9 6.238 13.735 3.369 4.723-2.862 6.231-9.012 3.369-13.734l-30.799-50.818h88.246c5.523 0 10-4.477 10-10v-300c0-5.523-4.477-10-10-10zm-10 300h-472v-280h472z"/><path d="m175.011 246h-59.011c-5.523 0-10 4.477-10 10v60c0 5.523 4.477 10 10 10h30v50c0 5.523 4.477 10 10 10s10-4.477 10-10v-50h9.011l55.176 11.035c24.821 4.964 45.549 20.796 56.868 43.437 2.083 4.167 6.749 6.322 11.242 5.261 4.514-1.065 7.703-5.095 7.703-9.732v-180.001c0-4.638-3.189-8.667-7.703-9.732-4.512-1.065-9.167 1.112-11.242 5.26-11.32 22.64-32.047 38.472-56.868 43.436zm-49.011 20h40v40h-40zm160-39.134-.001 118.266c-13.953-14.006-31.85-23.701-51.891-27.709l-48.108-9.621v-43.604l48.109-9.622c20.041-4.008 37.938-13.703 51.891-27.71z"/><path d="m356 276c-5.523 0-10 4.477-10 10s4.477 10 10 10h40c5.523 0 10-4.477 10-10s-4.477-10-10-10z"/><path d="m350.454 334.32 30 20c4.575 3.05 10.791 1.842 13.867-2.773 3.063-4.595 1.822-10.804-2.773-13.867l-30-20c-4.595-3.063-10.804-1.822-13.867 2.773-3.064 4.595-1.823 10.803 2.773 13.867z"/><path d="m361.547 254.32 30-20c4.595-3.063 5.837-9.272 2.773-13.867-3.063-4.595-9.272-5.837-13.867-2.773l-30 20c-4.595 3.063-5.837 9.272-2.773 13.867 3.072 4.608 9.285 5.828 13.867 2.773z"/></g></g></g></svg>