<svg id="Capa_1" enable-background="new 0 0 512 512" height="512" viewBox="0 0 512 512" width="512" xmlns="http://www.w3.org/2000/svg"><g><g><g><path d="m10 130h492v372h-492z" fill="#ccffb3"/><path d="m10 10h492v120h-492z" fill="#fff"/></g><path d="m116 276h60v60h-60z" fill="#9affbc"/><path d="m296 216c-12.619 25.237-36.183 43.237-63.852 48.77l-56.148 11.23v60l56.147 11.229c27.669 5.534 51.233 23.532 63.852 48.77z" fill="#fff"/></g><g><g fill="#53d0a6"><path d="m502 0h-492c-5.523 0-10 4.477-10 10v492c0 5.522 4.477 10 10 10h492c5.523 0 10-4.478 10-10v-492c0-5.523-4.477-10-10-10zm-10 20v100h-472v-100zm-472 472v-352h472v352z"/><path d="m76 80h20c5.523 0 10-4.477 10-10s-4.477-10-10-10h-20c-5.523 0-10 4.477-10 10s4.477 10 10 10z"/><path d="m156 80h20c5.523 0 10-4.477 10-10s-4.477-10-10-10h-20c-5.523 0-10 4.477-10 10s4.477 10 10 10z"/><path d="m236 80h20c5.523 0 10-4.477 10-10s-4.477-10-10-10h-20c-5.523 0-10 4.477-10 10s4.477 10 10 10z"/><path d="m316 80h120c5.523 0 10-4.477 10-10s-4.477-10-10-10h-120c-5.523 0-10 4.477-10 10s4.477 10 10 10z"/><path d="m298.297 206.269c-4.512-1.065-9.167 1.112-11.242 5.26-11.32 22.64-32.047 38.472-56.868 43.436l-55.176 11.035h-59.011c-5.523 0-10 4.477-10 10v60c0 5.523 4.477 10 10 10h30v50c0 5.523 4.477 10 10 10s10-4.477 10-10v-50h9.011l55.176 11.035c24.821 4.964 45.549 20.796 56.868 43.437 1.722 3.444 5.221 5.53 8.942 5.529 5.513 0 10.002-4.471 10.002-10.001v-179.999c.001-4.638-3.188-8.667-7.702-9.732zm-172.297 79.731h40v40h-40zm159.999 79.133c-13.953-14.006-31.85-23.701-51.891-27.709l-48.108-9.622v-43.604l48.109-9.622c20.04-4.008 37.938-13.703 51.891-27.709z"/><path d="m396 296h-40c-5.523 0-10 4.477-10 10s4.477 10 10 10h40c5.523 0 10-4.477 10-10s-4.477-10-10-10z"/><path d="m391.547 357.68-30-20c-4.594-3.063-10.804-1.822-13.867 2.773s-1.822 10.804 2.773 13.867l30 20c4.575 3.05 10.791 1.842 13.867-2.773 3.064-4.595 1.822-10.804-2.773-13.867z"/><path d="m361.547 274.32 30-20c4.595-3.063 5.837-9.272 2.773-13.867-3.063-4.596-9.272-5.837-13.867-2.773l-30 20c-4.595 3.063-5.837 9.272-2.773 13.867 3.071 4.608 9.285 5.829 13.867 2.773z"/></g></g></g></svg>