<svg id="Capa_1" enable-background="new 0 0 512 512" height="512" viewBox="0 0 512 512" width="512" xmlns="http://www.w3.org/2000/svg"><g><g><circle cx="256" cy="256" fill="#fff" r="246"/><circle cx="256" cy="256" fill="#fcc" r="180"/></g><g><g><g fill="#ff6684"><path d="m256 66c-104.981 0-190 85.38-190 190 0 104.133 84.543 190 190 190 104.755 0 190-85.16 190-190 0-104.232-84.668-190-190-190zm93.482 331.916-4.822-8.352c-2.762-4.781-8.874-6.421-13.66-3.66-4.783 2.761-6.422 8.877-3.66 13.66l4.839 8.381c-20.116 10.126-42.503 16.372-66.179 17.753v-9.698c0-5.523-4.478-10-10-10s-10 4.477-10 10v9.698c-23.675-1.38-46.063-7.626-66.179-17.753l4.839-8.381c2.762-4.783 1.123-10.899-3.66-13.66-4.785-2.762-10.899-1.122-13.66 3.66l-4.822 8.352c-19.225-12.706-35.727-29.209-48.434-48.434l8.351-4.822c4.764-2.75 6.412-8.832 3.688-13.611l-.353-.619c-1.314-2.306-3.491-3.995-6.051-4.695-2.561-.699-5.294-.354-7.598.963l-1.083.619c-1.158.662-2.134 1.52-2.909 2.508l-4.076 2.354c-10.125-20.116-16.371-42.504-17.751-66.179h9.698c5.522 0 10-4.477 10-10s-4.478-10-10-10h-9.698c1.38-23.675 7.626-46.063 17.752-66.179l8.381 4.839c4.767 2.751 10.889 1.139 13.66-3.66 2.762-4.783 1.123-10.899-3.66-13.66l-8.351-4.822c12.707-19.225 29.208-35.727 48.434-48.434l4.822 8.352c2.771 4.798 8.891 6.413 13.66 3.66 4.783-2.761 6.422-8.877 3.66-13.66l-4.839-8.381c20.116-10.127 42.504-16.373 66.179-17.753v9.698c0 5.523 4.478 10 10 10s10-4.477 10-10v-9.698c23.675 1.38 46.063 7.626 66.179 17.753l-4.839 8.381c-2.762 4.783-1.123 10.899 3.66 13.66 4.775 2.756 10.895 1.13 13.66-3.66l4.822-8.352c19.225 12.706 35.727 29.209 48.434 48.434l-8.351 4.822c-4.783 2.761-6.422 8.877-3.66 13.66 2.775 4.806 8.9 6.409 13.66 3.66l8.381-4.839c10.126 20.116 16.372 42.504 17.752 66.179h-9.698c-5.522 0-10 4.477-10 10s4.478 9.99 10 9.99h9.698c-1.38 23.675-7.626 46.073-17.752 66.189l-8.381-4.839c-4.784-2.762-10.898-1.123-13.66 3.66s-1.123 10.899 3.66 13.66l8.351 4.822c-12.707 19.225-29.209 35.727-48.434 48.434z"/><path d="m256 0c-141.578 0-256 114.388-256 256 0 141.578 114.388 256 256 256 141.58 0 256-114.389 256-256 0-141.578-114.388-256-256-256zm0 492c-130.131 0-236-105.869-236-236s105.869-236 236-236 236 105.869 236 236-105.869 236-236 236z"/><path d="m246 172.453c0-9.537 0-16.453 0-16.453 0-5.523 4.478-10 10-10s10 4.477 10 10v90c.106 0 51.635 0 50 0 5.522 0 10 4.477 10 10 0 1.288-.243 2.518-.687 3.649-1.458 3.718-5.078 6.351-9.313 6.351-20.397 0-37.454 0-57.344 0-3.313 1.893-75.247 42.998-74.058 42.319-4.772 2.727-10.89 1.098-13.644-3.721-2.74-4.795-1.074-10.904 3.722-13.644.332-.19 17.067-9.753 71.324-40.758 0-11.238 0-56.569 0-77.743z"/></g><circle cx="256" cy="256" fill="#fff" r="30"/></g></g></g></svg>