<svg id="Capa_1" enable-background="new 0 0 512 512" height="512" viewBox="0 0 512 512" width="512" xmlns="http://www.w3.org/2000/svg"><g><g><g><path d="m106 256h300v246h-300z" fill="#ffe6b3"/><path d="m256 10c-60.654 0-110 49.346-110 110v136h60v-136c0-27.614 22.386-50 50-50s50 22.386 50 50v76h60v-76c0-60.654-49.346-110-110-110z" fill="#fff"/></g></g><g><g fill="#ffa96b"><path d="m406 246h-190v-126c0-22.056 17.944-40 40-40s40 17.944 40 40v76c0 5.522 4.477 10 10 10h60c5.523 0 10-4.478 10-10v-76c0-66.168-53.832-120-120-120s-120 53.832-120 120v126h-30c-5.523 0-10 4.478-10 10v246c0 5.522 4.477 10 10 10h300c5.523 0 10-4.478 10-10v-246c0-5.522-4.477-10-10-10zm-250-126c0-55.141 44.86-100 100-100s100 44.859 100 100v66h-40v-66c0-33.084-26.916-60-60-60s-60 26.916-60 60v126h-40zm240 372h-280v-226h280z"/><path d="m256 452c5.523 0 10-4.478 10-10v-66c0-5.522-4.477-10-10-10s-10 4.478-10 10v66c0 5.522 4.477 10 10 10z"/></g><g><path d="m256 386c-22.056 0-40-17.944-40-40s17.944-40 40-40 40 17.944 40 40-17.944 40-40 40z" fill="#fff"/></g></g></g></svg>