<svg id="Capa_1" enable-background="new 0 0 512 512" height="512" viewBox="0 0 512 512" width="512" xmlns="http://www.w3.org/2000/svg"><g><g><path d="m420 70c0-33.137-27.863-60-61-60h-185c-33.137 0-61 26.863-61 60h-83c-11.046 0-20 8.954-20 20v46h492v-46c0-11.046-8.954-20-20-20z" fill="#ffe6b3"/><path d="m10 176h492v326h-492z" fill="#ffe6b3"/><g fill="#fff"><path d="m10 136v40c0 22.091 18.909 40 41 40s41-17.909 41-40c0 22.091 18.909 40 41 40s41-17.909 41-40c0 22.091 18.909 40 41 40s41-17.909 41-40c0 22.091 18.909 40 41 40s41-17.909 41-40c0 22.091 18.909 40 41 40s41-17.909 41-40c0 22.091 18.909 40 41 40s41-17.909 41-40v-40z"/><path d="m174 296h-82c-11.046 0-20 8.954-20 20v186h122v-186c0-11.046-8.954-20-20-20z"/></g></g><g><path d="m441 286h-185c-5.522 0-10 4.478-10 10v120c0 5.522 4.478 10 10 10h185c5.522 0 10-4.478 10-10v-120c0-5.522-4.478-10-10-10z" fill="#fff"/><g fill="#ffa96b"><path d="m482 60h-52.725c-2.18-14.901-9.219-28.688-20.358-39.577-13.473-13.17-31.2-20.423-49.917-20.423h-185c-18.716 0-36.444 7.253-49.917 20.423-11.139 10.889-18.178 24.676-20.358 39.577h-73.725c-16.542 0-30 13.458-30 30v412c0 5.522 4.477 10 10 10h492c5.522 0 10-4.478 10-10 0-20.758 0-391.665 0-412 0-16.542-13.458-30-30-30zm-462 86h62v30c0 16.262-14.196 30-31 30s-31-13.738-31-30zm82 0h62v30c0 16.262-14.196 30-31 30s-31-13.738-31-30zm82 0h62v30c0 16.262-14.196 30-31 30s-31-13.738-31-30zm82 0h62v30c0 16.262-14.196 30-31 30s-31-13.738-31-30zm82 0h62v30c0 16.262-14.196 30-31 30s-31-13.738-31-30zm82 0h62v30c0 16.262-14.196 30-31 30s-31-13.738-31-30zm-410-56c0-5.514 4.486-10 10-10h83c5.523 0 10-4.478 10-10 0-27.57 22.878-50 51-50h185c28.121 0 51 22.43 51 50 0 5.522 4.478 10 10 10h62c5.514 0 10 4.486 10 10v36h-472zm164 296h-10c-5.523 0-10 4.478-10 10s4.477 10 10 10h10v86h-102v-176c0-5.514 4.486-10 10-10h82c5.514 0 10 4.486 10 10zm20 106v-176c0-16.542-13.458-30-30-30h-82c-16.542 0-30 13.458-30 30v176h-42v-276.479c8.924 6.787 19.722 10.479 31 10.479 16.337 0 31.347-7.745 41-20.463 9.677 12.749 24.699 20.463 41 20.463 16.337 0 31.347-7.745 41-20.463 9.677 12.749 24.699 20.463 41 20.463 16.336 0 31.347-7.744 41-20.463 9.696 12.775 24.73 20.463 41 20.463 16.305 0 31.328-7.719 41-20.463 9.696 12.775 24.73 20.463 41 20.463 16.305 0 31.328-7.719 41-20.463 9.696 12.775 24.73 20.463 41 20.463 11.278 0 22.076-3.692 31-10.479v276.479z"/><path d="m194 80h144c5.522 0 10-4.478 10-10s-4.478-10-10-10h-144c-5.523 0-10 4.478-10 10s4.477 10 10 10z"/></g></g></g></svg>