<svg id="Capa_1" enable-background="new 0 0 512 512" height="512" viewBox="0 0 512 512" width="512" xmlns="http://www.w3.org/2000/svg"><g><g><path d="m46 50h420v452h-420z" fill="#ccffb3"/><g fill="#fff"><path d="m106 136h60v60h-60z"/><path d="m226 136h60v60h-60z"/><path d="m346 136h60v60h-60z"/><path d="m226 256h60v60h-60z"/><path d="m106 256h60v60h-60z"/><path d="m106 376h60v60h-60z"/><path d="m226 376h60v60h-60z"/></g></g><g><path d="m96 136v60c0 5.522 4.478 10 10 10h60c5.522 0 10-4.478 10-10v-60c0-5.522-4.478-10-10-10h-60c-5.522 0-10 4.478-10 10zm20 10h40v40h-40z" fill="#53d0a6"/><path d="m226 206h60c5.522 0 10-4.478 10-10v-60c0-5.522-4.478-10-10-10h-60c-5.522 0-10 4.478-10 10v60c0 5.522 4.478 10 10 10zm10-60h40v40h-40z" fill="#53d0a6"/><path d="m346 206h60c5.522 0 10-4.478 10-10v-60c0-5.522-4.478-10-10-10h-60c-5.522 0-10 4.478-10 10v60c0 5.522 4.478 10 10 10zm10-60h40v40h-40z" fill="#53d0a6"/><path d="m346 326h60c5.522 0 10-4.478 10-10v-60c0-5.522-4.478-10-10-10h-60c-5.522 0-10 4.478-10 10v60c0 5.522 4.478 10 10 10z" fill="#fff"/><g fill="#53d0a6"><path d="m226 326h60c5.522 0 10-4.478 10-10v-60c0-5.522-4.478-10-10-10h-60c-5.522 0-10 4.478-10 10v60c0 5.522 4.478 10 10 10zm10-60h40v40h-40z"/><path d="m166 246h-60c-5.522 0-10 4.478-10 10v60c0 5.522 4.478 10 10 10h60c5.522 0 10-4.478 10-10v-60c0-5.522-4.478-10-10-10zm-10 60h-40v-40h40z"/><path d="m166 366h-60c-5.522 0-10 4.478-10 10v60c0 5.522 4.478 10 10 10h60c5.522 0 10-4.478 10-10v-60c0-5.522-4.478-10-10-10zm-10 60h-40v-40h40z"/><path d="m226 446h60c5.522 0 10-4.478 10-10v-60c0-5.522-4.478-10-10-10h-60c-5.522 0-10 4.478-10 10v60c0 5.522 4.478 10 10 10zm10-60h40v40h-40z"/></g><path d="m346 446h60c5.522 0 10-4.478 10-10v-60c0-5.522-4.478-10-10-10h-60c-5.522 0-10 4.478-10 10v60c0 5.522 4.478 10 10 10z" fill="#fff"/><path d="m126 0c-5.522 0-10 4.478-10 10v30h-70c-5.522 0-10 4.478-10 10v452c0 5.522 4.478 10 10 10h420c5.522 0 10-4.478 10-10v-452c0-5.522-4.478-10-10-10h-70v-30c0-5.522-4.478-10-10-10s-10 4.478-10 10v30h-110v-30c0-5.522-4.478-10-10-10s-10 4.478-10 10v30h-110v-30c0-5.522-4.478-10-10-10zm120 60v10c0 5.522 4.478 10 10 10s10-4.478 10-10v-10h110v10c0 5.522 4.478 10 10 10s10-4.478 10-10v-10h60v432h-400v-432h60v10c0 5.522 4.478 10 10 10s10-4.478 10-10v-10z" fill="#53d0a6"/></g></g></svg>