<svg id="Capa_1" enable-background="new 0 0 512 512" height="512" viewBox="0 0 512 512" width="512" xmlns="http://www.w3.org/2000/svg"><g><g><path d="m30 243.79v172.21c0 22.091 17.909 40 40 40h372c22.091 0 40-17.909 40-40v-172.289z" fill="#ccf"/><path d="m10 116v120s124.259 48.673 216 58.342l60-.169c91.786-10.053 216-58.173 216-58.173v-120z" fill="#fff"/><path d="m256 356c-16.569 0-30-13.431-30-30v-50h60v50c0 16.569-13.431 30-30 30z" fill="#b9f"/></g><g><g><path d="m502 106h-156v-30c0-16.542-13.458-30-30-30h-120c-16.542 0-30 13.458-30 30v30h-156c-5.522 0-10 4.478-10 10v120c0 4.115 2.521 7.811 6.353 9.312.939.368 5.796 2.259 13.647 5.156v165.532c0 27.57 22.43 50 50 50h372c27.57 0 50-22.43 50-50v-165.585c7.831-2.861 12.675-4.727 13.612-5.09 3.85-1.492 6.388-5.196 6.388-9.325v-120c0-5.522-4.478-10-10-10zm-316-30c0-5.514 4.486-10 10-10h120c5.514 0 10 4.486 10 10v30h-140zm-146 340v-158.351c41.552 14.539 114.153 37.656 176 45.589v22.762c0 18.604 12.767 34.282 30 38.734v81.266h-176c-16.542 0-30-13.458-30-30zm236-90c0 11.028-8.972 20-20 20s-20-8.972-20-20c0-13.239 0-25.223 0-40h40zm196 90c0 16.542-13.458 30-30 30h-176v-81.266c17.233-4.452 30-20.13 30-38.734v-22.964c61.863-8.142 134.464-31.102 176-45.507zm20-186.92c-25.195 9.35-119.904 43.246-196 53.774v-6.854c0-5.522-4.478-10-10-10h-60c-5.522 0-10 4.478-10 10v7.064c-76.071-10.271-170.852-44.527-196-53.958v-103.106h472z" fill="#b578d3"/></g></g></g></svg>