<svg id="Capa_1" enable-background="new 0 0 512 512" height="512" viewBox="0 0 512 512" width="512" xmlns="http://www.w3.org/2000/svg"><g><g><g><path d="m10 66h492v300h-492z" fill="#ccffb3" transform="matrix(-1 0 0 -1 512 432)"/><circle cx="256" cy="456" fill="#fff" r="30"/></g></g><g><g fill="#53d0a6"><path d="m502 56h-56v-30c0-5.522-4.477-10-10-10s-10 4.478-10 10v30h-340v-30c0-5.522-4.477-10-10-10s-10 4.478-10 10v30h-56c-5.523 0-10 4.478-10 10v300c0 5.522 4.477 10 10 10h236v41.266c-17.233 4.452-30 20.13-30 38.734 0 22.056 17.944 40 40 40s40-17.944 40-40c0-18.604-12.767-34.282-30-38.734v-41.266h236c5.523 0 10-4.478 10-10v-300c0-5.522-4.477-10-10-10zm-226 400c0 11.028-8.972 20-20 20s-20-8.972-20-20 8.972-20 20-20 20 8.972 20 20zm216-100h-472v-280h472z"/><path d="m388 240c-3.313 4.418-2.418 10.687 2 14l16 12h-17.889c-41.802 0-80.603-20.766-103.791-55.547-26.905-40.358-71.926-64.453-120.431-64.453h-27.889c-5.523 0-10 4.478-10 10s4.477 10 10 10h27.889c41.802 0 80.603 20.766 103.791 55.547 26.905 40.358 71.926 64.453 120.431 64.453h17.889l-16 12c-4.418 3.313-5.313 9.582-2 14 3.331 4.441 9.6 5.299 14 2l40-30c2.518-1.889 4-4.853 4-8s-1.482-6.111-4-8l-40-30c-4.418-3.314-10.687-2.418-14 2z"/><path d="m328.929 193.071c3.906 3.905 10.237 3.905 14.143 0l22.928-22.928 22.929 22.929c3.906 3.905 10.237 3.905 14.143 0 3.905-3.905 3.905-10.237 0-14.143l-22.929-22.929 22.929-22.929c3.905-3.905 3.905-10.237 0-14.143-3.905-3.904-10.237-3.904-14.143 0l-22.929 22.929-22.929-22.929c-3.905-3.904-10.237-3.904-14.143 0-3.905 3.905-3.905 10.237 0 14.143l22.929 22.929-22.929 22.929c-3.904 3.905-3.904 10.237.001 14.142z"/><path d="m203.071 238.929c-3.905-3.904-10.237-3.904-14.143 0l-22.928 22.928-22.929-22.929c-3.905-3.904-10.237-3.904-14.143 0-3.905 3.905-3.905 10.237 0 14.143l22.929 22.929-22.929 22.929c-3.905 3.905-3.905 10.237 0 14.143 3.906 3.905 10.237 3.905 14.143 0l22.929-22.929 22.929 22.929c3.906 3.905 10.237 3.905 14.143 0 3.905-3.905 3.905-10.237 0-14.143l-22.929-22.929 22.929-22.929c3.904-3.905 3.904-10.237-.001-14.142z"/></g><g><path d="m106 196c-22.056 0-40-17.944-40-40s17.944-40 40-40 40 17.944 40 40-17.944 40-40 40z" fill="#fff"/></g></g></g></svg>