<svg id="Capa_1" enable-background="new 0 0 512.002 512.002" height="512" viewBox="0 0 512.002 512.002" width="512" xmlns="http://www.w3.org/2000/svg"><g><g><circle cx="223.001" cy="256" fill="#ccf" r="180"/><circle cx="223.001" cy="256" fill="#fff" r="120"/><circle cx="223.001" cy="256" fill="#ccf" r="60"/><path d="m409.001 10-20 80 80-20v-60z" fill="#b9f"/></g><g><g><path d="m134.802 424.245-40.54 72.895c-2.685 4.826-.948 10.915 3.879 13.6 4.825 2.685 10.915.948 13.6-3.879l41.276-74.218c21.668 8.614 45.282 13.357 69.984 13.357s48.316-4.743 69.985-13.358l41.276 74.218c2.688 4.835 8.783 6.559 13.6 3.879 4.827-2.685 6.563-8.773 3.879-13.6l-40.54-72.895c60.468-31.827 101.8-95.295 101.8-168.244 0-48.793-18.494-93.343-48.832-127.026l29.945-29.945 77.312-19.328c4.452-1.112 7.575-5.112 7.575-9.701v-60c0-5.522-4.477-10-10-10h-60c-4.589 0-8.588 3.123-9.702 7.574l-19.328 77.313-29.944 29.944c-33.683-30.337-78.233-48.831-127.026-48.831-104.766 0-190 85.233-190 190 0 72.949 41.332 136.417 101.801 168.245zm282.007-404.245h42.192v42.192l-56.256 14.063zm-193.808 66c43.278 0 82.823 16.265 112.866 42.992l-28.33 28.33c-22.746-19.514-52.287-31.322-84.536-31.322-71.682 0-130 58.317-130 130s58.318 130 130 130 130-58.317 130-130c0-32.249-11.808-61.79-31.322-84.535l28.33-28.33c26.727 30.042 42.992 69.587 42.992 112.866 0 93.738-76.262 170-170 170s-170-76.262-170-170 76.262-170.001 170-170.001zm50 170c0 27.57-22.43 50-50 50s-50-22.43-50-50 22.43-50 50-50c10.176 0 19.647 3.063 27.553 8.305l-34.624 34.624c-3.905 3.905-3.905 10.237 0 14.143 3.906 3.905 10.237 3.905 14.143 0l34.624-34.624c5.241 7.905 8.304 17.376 8.304 27.552zm-8.101-56.041c-11.69-8.762-26.199-13.959-41.899-13.959-38.598 0-70 31.402-70 70s31.402 70 70 70 70-31.402 70-70c0-15.7-5.197-30.209-13.959-41.899l28.452-28.452c15.916 19.083 25.506 43.617 25.506 70.351 0 60.654-49.346 110-110 110s-110-49.346-110-110 49.346-110 110-110c26.734 0 51.268 9.59 70.351 25.506z" fill="#b578d3"/></g></g></g></svg>