<svg id="Capa_1" enable-background="new 0 0 512 512" height="512" viewBox="0 0 512 512" width="512" xmlns="http://www.w3.org/2000/svg"><g><g><path d="m106 136h300v366h-300z" fill="#ffe6b3"/></g><g><path d="m212.107 330.261-1.367 33.877c-.135 3.341 1.409 6.528 4.114 8.493 2.705 1.966 6.214 2.448 9.349 1.288l31.797-11.768 31.797 11.768c3.177 1.176 6.681.652 9.349-1.288 2.705-1.965 4.249-5.152 4.114-8.493l-1.367-33.877 21.018-26.603c2.072-2.623 2.697-6.109 1.664-9.289s-3.587-5.633-6.807-6.537l-32.641-9.169-18.807-28.21c-1.854-2.782-4.977-4.453-8.32-4.453s-6.466 1.671-8.32 4.453l-18.807 28.21-32.64 9.169c-3.22.904-5.773 3.357-6.807 6.537s-.408 6.665 1.664 9.289z" fill="#fff"/><g fill="#ffa96b"><path d="m326 426h-140.001c-5.522 0-10 4.478-10 10s4.478 10 10 10h140.001c5.522 0 10-4.478 10-10s-4.478-10-10-10z"/><path d="m256 0c-52.979 0-82.975 72.989-93.37 126h-56.63c-5.522 0-10 4.478-10 10v366c0 5.522 4.478 10 10 10h300c5.522 0 10-4.478 10-10v-366c0-5.522-4.478-10-10-10h-56.63c-10.469-53.387-40.554-126-93.37-126zm140 146v346h-280v-346l43.322-.01c-2.19 16.188-3.322 32.98-3.322 50.01 0 5.522 4.478 10 10 10s10-4.478 10-10c0-16.911 1.239-33.767 3.592-50h152.817c2.353 16.233 3.592 33.089 3.592 50 0 5.522 4.478 10 10 10s10-4.478 10-10c0-17.03-1.132-33.812-3.322-50zm-212.877-20c8.557-40.871 33.284-106 72.877-106 39.608 0 64.325 65.149 72.877 106z"/></g></g></g></svg>