<svg id="Capa_1" enable-background="new 0 0 512 512" height="512" viewBox="0 0 512 512" width="512" xmlns="http://www.w3.org/2000/svg"><g id="XMLID_1_"><g><g fill="#b9f"><circle cx="86" cy="412" r="30"/><circle cx="256" cy="472" r="30"/><circle cx="426" cy="412" r="30"/></g><path d="m76 130h360v66h-360z" fill="#fff"/><path d="m10 196h492v120h-492z" fill="#ccf"/><path d="m10 10h492v120h-492z" fill="#ccf"/></g><g fill="#b578d3"><path d="m502 140c5.523 0 10-4.478 10-10v-120c0-5.522-4.477-10-10-10h-492c-5.523 0-10 4.478-10 10v120c0 5.522 4.477 10 10 10h56v46h-56c-5.523 0-10 4.478-10 10v120c0 5.522 4.477 10 10 10h176v66c0 5.514-4.486 10-10 10h-51.266c-4.452-17.233-20.13-30-38.734-30-22.056 0-40 17.944-40 40s17.944 40 40 40c18.604 0 34.282-12.767 38.734-30h51.266c16.542 0 30-13.458 30-30v-66h40v107.266c-17.233 4.452-30 20.13-30 38.734 0 22.056 17.944 40 40 40s40-17.944 40-40c0-18.604-12.767-34.282-30-38.734v-107.266h40v66c0 16.542 13.458 30 30 30h51.266c4.452 17.233 20.13 30 38.734 30 22.056 0 40-17.944 40-40s-17.944-40-40-40c-18.604 0-34.282 12.767-38.734 30h-51.266c-5.514 0-10-4.486-10-10v-66h176c5.523 0 10-4.478 10-10v-120c0-5.522-4.477-10-10-10h-56v-46zm-416 292c-11.028 0-20-8.972-20-20s8.972-20 20-20 20 8.972 20 20-8.972 20-20 20zm190 40c0 11.028-8.972 20-20 20s-20-8.972-20-20 8.972-20 20-20 20 8.972 20 20zm150-80c11.028 0 20 8.972 20 20s-8.972 20-20 20-20-8.972-20-20 8.972-20 20-20zm-406-372h472v100h-472zm66 120h340v46h-340zm406 166h-472v-100h472z"/><path d="m196 80c5.523 0 10-4.478 10-10s-4.477-10-10-10h-120c-5.523 0-10 4.478-10 10s4.477 10 10 10z"/><path d="m416 80h20c5.523 0 10-4.478 10-10s-4.477-10-10-10h-20c-5.523 0-10 4.478-10 10s4.477 10 10 10z"/><path d="m336 80h20c5.523 0 10-4.478 10-10s-4.477-10-10-10h-20c-5.523 0-10 4.478-10 10s4.477 10 10 10z"/><path d="m256 80h20c5.523 0 10-4.478 10-10s-4.477-10-10-10h-20c-5.523 0-10 4.478-10 10s4.477 10 10 10z"/><path d="m196 246h-120c-5.523 0-10 4.478-10 10s4.477 10 10 10h120c5.523 0 10-4.478 10-10s-4.477-10-10-10z"/><path d="m416 246c-5.523 0-10 4.478-10 10s4.477 10 10 10h20c5.523 0 10-4.478 10-10s-4.477-10-10-10z"/><path d="m356 246h-20c-5.523 0-10 4.478-10 10s4.477 10 10 10h20c5.523 0 10-4.478 10-10s-4.477-10-10-10z"/><path d="m276 246h-20c-5.523 0-10 4.478-10 10s4.477 10 10 10h20c5.523 0 10-4.478 10-10s-4.477-10-10-10z"/></g></g></svg>