<svg id="Capa_1" enable-background="new 0 0 512 512" height="512" viewBox="0 0 512 512" width="512" xmlns="http://www.w3.org/2000/svg"><g><g><g><path d="m256 502c-66.274 0-120-53.726-120-120v-186c0-33.137 26.863-60 60-60h120c33.137 0 60 26.863 60 60v186c0 66.274-53.726 120-120 120z" fill="#cef"/></g></g><g><g fill="#80aaff"><path d="m316 126h-50v-56c0-27.57 22.43-50 50-50h60c5.523 0 10-4.478 10-10s-4.477-10-10-10h-60c-38.598 0-70 31.401-70 70v56h-50c-38.598 0-70 31.402-70 70v186c0 71.683 58.318 130 130 130s130-58.317 130-130v-186c0-38.598-31.402-70-70-70zm50 256c0 60.654-49.346 110-110 110s-110-49.346-110-110v-186c0-27.57 22.43-50 50-50h50v50c0 5.522 4.477 10 10 10s10-4.478 10-10v-50h50c27.57 0 50 22.43 50 50z"/><path d="m256 286c-5.523 0-10 4.478-10 10v66c0 5.522 4.477 10 10 10s10-4.478 10-10v-66c0-5.522-4.477-10-10-10z"/></g><g><path d="m256 306c-22.056 0-40-17.944-40-40v-40c0-22.056 17.944-40 40-40s40 17.944 40 40v40c0 22.056-17.944 40-40 40z" fill="#fff"/></g></g></g></svg>