<svg id="Capa_1" enable-background="new 0 0 512 512" height="512" viewBox="0 0 512 512" width="512" xmlns="http://www.w3.org/2000/svg"><g><g><path d="m412 50c-8.23 0-303.432 0-312 0l90 240h312v-150c0-49.706-40.294-90-90-90z" fill="#ccf"/><path d="m100 50c-49.706 0-90 40.294-90 90v150h180v-150c0-49.706-40.294-90-90-90z" fill="#fff"/><path d="m256 10h80v60h-80z" fill="#b9f"/><path d="m256 290h60v212h-60z" fill="#fff"/></g><g><g fill="#b578d3"><path d="m412 40h-66v-30c0-5.522-4.478-10-10-10h-80c-5.522 0-10 4.478-10 10v30h-146c-55.141 0-100 44.859-100 100v150c0 5.522 4.478 10 10 10h236v202c0 5.522 4.478 10 10 10h60c5.522 0 10-4.478 10-10v-202h176c5.522 0 10-4.478 10-10v-150c0-55.141-44.859-100-100-100zm-146-20h60v40h-60c0-12.152 0-28.103 0-40zm-246 120c0-44.112 35.888-80 80-80s80 35.888 80 80v140h-160zm286 352h-40v-192h40zm186-212h-292v-140c0-32.676-15.755-61.741-40.066-80h86.066v130c0 5.522 4.478 10 10 10s10-4.478 10-10v-110h70c5.522 0 10-4.478 10-10v-10h66c44.112 0 80 35.888 80 80z"/><path d="m130 220h-60c-5.522 0-10 4.478-10 10s4.478 10 10 10h60c5.522 0 10-4.478 10-10s-4.478-10-10-10z"/></g></g></g></svg>