<svg id="Capa_1" enable-background="new 0 0 512 512" height="512" viewBox="0 0 512 512" width="512" xmlns="http://www.w3.org/2000/svg"><g><g><path d="m353.476 341.348h-194.952l-44.326 94.652h61.802l20 66s59.98-131.956 60-132c.02.044 60 132 60 132l20-66h61.802z" fill="#ffe6b3"/><circle cx="256" cy="190" fill="#fff" r="180"/><circle cx="256" cy="190" fill="#ffe6b3" r="120"/></g><g><path d="m145.887 344.755-40.744 87.004c-1.451 3.098-1.218 6.721.617 9.607s5.019 4.634 8.438 4.634h54.383l17.849 58.9c1.207 3.984 4.756 6.803 8.909 7.078 4.214.277 8.067-2.104 9.765-5.84l50.896-111.972 50.896 111.972c1.63 3.586 5.201 5.862 9.101 5.862 4.409 0 8.296-2.883 9.573-7.1l17.849-58.9h54.383c3.42 0 6.604-1.748 8.438-4.634 1.835-2.886 2.068-6.51.617-9.607l-40.744-87.004c48.322-34.482 79.887-91.001 79.887-154.755 0-104.766-85.233-190-190-190s-190 85.234-190 190c0 63.754 31.565 120.273 79.887 154.755zm51.989 128.953-12.306-40.608c-1.277-4.217-5.164-7.1-9.57-7.1h-46.076l32.979-70.424c23.349 13.18 49.743 21.568 77.845 23.811zm184.2-47.708h-46.076c-4.406 0-8.293 2.883-9.57 7.1l-12.306 40.607-42.873-94.321c28.103-2.243 54.497-10.631 77.845-23.811zm-126.076-406c93.738 0 170 76.262 170 170s-76.262 170-170 170-170-76.262-170-170 76.262-170 170-170z" fill="#ffa96b"/><path d="m256 320c71.683 0 130-58.318 130-130s-58.317-130-130-130-130 58.318-130 130 58.317 130 130 130zm0-240c60.654 0 110 49.346 110 110s-49.346 110-110 110-110-49.346-110-110 49.346-110 110-110z" fill="#ffa96b"/><path d="m212.107 204.261-1.367 33.877c-.135 3.341 1.409 6.528 4.114 8.494 2.706 1.965 6.215 2.449 9.349 1.288l31.797-11.769 31.797 11.769c3.161 1.17 6.665.66 9.349-1.288 2.705-1.965 4.249-5.153 4.114-8.494l-1.367-33.877 21.018-26.603c2.072-2.624 2.697-6.109 1.664-9.289s-3.587-5.633-6.807-6.538l-32.641-9.169-18.807-28.209c-1.854-2.782-4.977-4.453-8.32-4.453s-6.466 1.671-8.32 4.453l-18.807 28.209-32.64 9.169c-3.22.904-5.773 3.357-6.807 6.537-1.033 3.18-.408 6.666 1.664 9.29z" fill="#fff"/></g></g></svg>