<svg id="Capa_1" enable-background="new 0 0 512 512" height="512" viewBox="0 0 512 512" width="512" xmlns="http://www.w3.org/2000/svg"><g><g><path d="m436 190v20c0 80.28-29.72 99.91-180 292-150.29-192.09-180-211.73-180-292v-20c0-99.25 80.75-180 180-180s180 80.75 180 180zm-60 20v-20c0-66.27-53.73-120-120-120s-120 53.73-120 120v20c0 66.27 53.73 120 120 120s120-53.73 120-120z" fill="#fff"/><path d="m376 190v20c0 66.27-53.73 120-120 120s-120-53.73-120-120v-20c0-66.27 53.73-120 120-120s120 53.73 120 120z" fill="#fcc"/></g><g><path d="m256 60c-71.682 0-130 58.318-130 130v20c0 71.682 58.318 130 130 130s130-58.318 130-130v-20c0-71.682-58.318-130-130-130zm110 150c0 60.654-49.346 110-110 110s-110-49.346-110-110v-20c0-60.654 49.346-110 110-110s110 49.346 110 110z" fill="#ff6684"/><path d="m256 0c-104.767 0-190 85.233-190 190v20c0 69.356 21.57 96.373 112.351 210.079 20.067 25.135 42.812 53.623 69.773 88.083 1.896 2.422 4.8 3.838 7.876 3.838s5.981-1.416 7.876-3.838c26.986-34.494 49.747-63.003 69.828-88.155 90.737-113.653 112.296-140.657 112.296-210.007v-20c0-104.767-85.233-190-190-190zm170 210c0 62.345-18.591 85.631-107.926 197.528-18.128 22.706-38.436 48.142-62.075 78.259-23.614-30.083-43.906-55.501-62.019-78.188-89.38-111.95-107.98-135.248-107.98-197.599v-20c0-93.738 76.262-170 170-170s170 76.262 170 170z" fill="#ff6684"/><g fill="#fff"><circle cx="256" cy="160" r="40"/><path d="m321.862 246.765c-9.563-27.972-36.031-46.765-65.862-46.765s-56.299 18.793-65.862 46.765c-1.044 3.054-.55 6.425 1.328 9.051s4.906 4.184 8.134 4.184h112.8c3.228 0 6.257-1.558 8.135-4.184s2.371-5.997 1.327-9.051z"/></g></g></g></svg>