<svg id="Capa_1" enable-background="new 0 0 512 512" height="512" viewBox="0 0 512 512" width="512" xmlns="http://www.w3.org/2000/svg"><g><g><circle cx="186" cy="472" fill="#9df" r="30"/><circle cx="432" cy="472" fill="#9df" r="30"/><path d="m136 133v249h306c33.137 0 60-26.863 60-60v-189z" fill="#cef"/></g><g><g><path d="m502 123h-356v-53c0-38.598-31.402-70-70-70h-66c-5.523 0-10 4.477-10 10s4.477 10 10 10h66c27.57 0 50 22.43 50 50v302c-22.056 0-40 17.944-40 40s17.944 39.99 40 39.99l25.381.01c-3.415 5.888-5.381 12.69-5.381 20 0 22.056 17.944 40 40 40s40-17.944 40-40c0-7.283-1.966-14.112-5.381-20.01h176.763c-3.416 5.898-5.382 12.727-5.382 20.01 0 22.056 17.944 40 40 40s40-17.944 40-40c0-7.283-1.966-14.112-5.381-20h35.381c5.522 0 10-4.477 10-10s-4.478-10-10-10h-376c-11.028 0-20-8.972-20-20s8.972-20 20-20h316c38.598 0 70-31.402 70-70v-189c0-5.523-4.478-10-10-10zm-296 349c0 11.028-8.972 20-20 20s-20-8.972-20-20 8.972-20 20-20 20 8.972 20 20zm246 0c0 11.028-8.972 20-20 20s-20-8.972-20-20 8.972-20 20-20 20 8.972 20 20zm-306-246h102v63h-102zm0 83h102v63h-102zm122 0h102v63h-102zm0-20v-63h102v63zm0-83v-63h102v63zm122 20h102v63h-102zm102-20h-102v-63h102zm-244-63v63h-102v-63zm194 229h-52v-63h102v13c0 27.57-22.43 50-50 50z" fill="#80aaff"/></g></g></g></svg>