<svg id="Capa_1" enable-background="new 0 0 512.023 512.023" height="512" viewBox="0 0 512.023 512.023" width="512" xmlns="http://www.w3.org/2000/svg"><g><g><circle cx="256.023" cy="255.87" fill="#ccffb3" r="180"/><path d="m156.034 226.662c-.437-16.93 13.158-30.792 29.99-30.792h60c16.568 0 30-13.431 30-30 0-16.568-13.431-30-30-30h-20c-16.302 0-30.383-12.995-30.008-29.293.158-6.857-1.995-13.2-5.721-18.325-66.903 26.255-114.272 91.403-114.272 167.618h48.837c16.465 0 31.598-12.749 31.174-29.208z" fill="#fff"/><path d="m336.023 285.87c0 16.569-13.431 30-30 30h-80c-16.568 0-30 13.432-30 30 0 16.569 13.432 30 30 30h60c16.569 0 30 13.432 30 30 0 9.383-4.308 17.76-11.054 23.261 75.624-21.321 131.054-90.816 131.054-173.261h-70c-16.568 0-30 13.431-30 30z" fill="#fff"/><path d="m390.19 135.87h-24.167c-16.568 0-30 13.432-30 30 0 16.569 13.432 30 30 30h59.758z" fill="#9affbc"/></g><g><g fill="#53d0a6"><path d="m430.474 412.052c-8.8 9.765-18.446 18.896-28.669 27.137-4.3 3.466-4.975 9.762-1.509 14.062 3.472 4.307 9.768 4.97 14.062 1.509 11.045-8.905 21.466-18.769 30.974-29.318 3.697-4.103 3.368-10.426-.734-14.123-4.102-3.698-10.427-3.37-14.124.733z"/><path d="m480.172 327.594c-4.16 12.345-9.432 24.504-15.669 36.137-2.609 4.867-.779 10.929 4.088 13.538 4.887 2.62 10.939.761 13.539-4.088 6.763-12.613 12.48-25.802 16.995-39.202 1.764-5.233-1.05-10.906-6.283-12.669-5.237-1.763-10.907 1.051-12.67 6.284z"/><path d="m499.369 219.517c-5.486.63-9.424 5.588-8.794 11.075.96 8.364 1.447 16.869 1.448 25.278 0 4.643-.148 9.344-.441 13.971-.35 5.512 3.835 10.263 9.347 10.612 5.505.349 10.263-3.828 10.613-9.348.319-5.046.481-10.172.481-15.236-.001-9.168-.532-18.44-1.579-27.558-.629-5.488-5.589-9.424-11.075-8.794z"/><path d="m392.787 65.616c10.579 7.753 20.631 16.433 29.878 25.795 3.872 3.919 10.202 3.979 14.143.088 3.929-3.881 3.969-10.212.088-14.142-9.991-10.116-20.853-19.494-32.284-27.873-4.454-3.264-10.712-2.302-13.978 2.154-3.265 4.455-2.301 10.713 2.153 13.978z"/><path d="m256.429 491.869h-.406c-13.041 0-26.212-1.169-39.145-3.476-5.433-.973-10.632 2.652-11.601 8.089-.97 5.437 2.652 10.631 8.089 11.601 14.089 2.513 28.44 3.787 42.656 3.787h.473c5.523-.019 9.985-4.51 9.967-10.033-.019-5.512-4.492-9.967-9.999-9.967-.011-.001-.023-.001-.034-.001z"/><path d="m351.686 470.449c-11.957 5.557-24.387 10.108-36.945 13.527-5.329 1.451-8.473 6.947-7.021 12.276 1.452 5.337 6.954 8.471 12.275 7.022 13.645-3.715 27.144-8.657 40.121-14.688 5.008-2.328 7.182-8.275 4.854-13.283-2.329-5.007-8.274-7.182-13.284-4.854z"/><path d="m494.9 166.169c-5.159-13.156-11.498-26.048-18.841-38.318-2.837-4.739-8.977-6.282-13.716-3.446s-6.282 8.977-3.446 13.716c6.777 11.326 12.626 23.219 17.384 35.351 2.016 5.142 7.818 7.675 12.961 5.659 5.141-2.018 7.675-7.821 5.658-12.962z"/><path d="m117.323 66.679c10.61-7.842 21.881-14.855 33.498-20.846 4.909-2.531 6.836-8.562 4.305-13.471-2.531-4.91-8.563-6.836-13.471-4.305-12.565 6.479-24.751 14.062-36.219 22.538-4.441 3.283-5.381 9.544-2.099 13.985 3.287 4.449 9.552 5.377 13.986 2.099z"/><path d="m206.172 25.523c12.817-2.929 25.911-4.74 38.918-5.383 5.516-.272 9.767-4.965 9.494-10.481-.272-5.516-4.913-9.756-10.482-9.494-14.17.7-28.431 2.672-42.385 5.861-5.384 1.23-8.752 6.592-7.521 11.976 1.239 5.42 6.629 8.745 11.976 7.521z"/><path d="m43.317 378.779c-4.612 3.038-5.89 9.239-2.852 13.852 7.779 11.813 16.604 23.129 26.227 33.636 3.735 4.08 10.062 4.344 14.128.621 4.073-3.73 4.351-10.056.62-14.128-8.908-9.727-17.074-20.2-24.271-31.128-3.037-4.613-9.237-5.891-13.852-2.853z"/><path d="m72.995 93.118c-4.234-3.548-10.54-2.996-14.088 1.237-9.165 10.929-17.482 22.626-24.722 34.769-2.828 4.744-1.274 10.882 3.469 13.71 4.745 2.828 10.882 1.275 13.711-3.469 6.693-11.227 14.387-22.047 22.866-32.159 3.549-4.231 2.995-10.539-1.236-14.088z"/><path d="m20.91 180.968c-5.302-1.559-10.856 1.475-12.414 6.773-4.044 13.754-6.882 27.877-8.435 41.977-.605 5.489 3.354 10.43 8.845 11.035 5.503.607 10.431-3.37 11.034-8.845 1.425-12.934 4.03-25.896 7.743-38.524 1.558-5.3-1.474-10.858-6.773-12.416z"/><path d="m126.258 451.367c-4.581-3.084-10.796-1.87-13.88 2.711s-1.87 10.795 2.712 13.879c11.845 7.974 24.362 15.009 37.203 20.91 5.008 2.3 10.95.12 13.263-4.911 2.306-5.019.107-10.956-4.911-13.262-11.864-5.452-23.433-11.955-34.387-19.327z"/><path d="m9.947 282.373c-5.453.876-9.163 6.006-8.287 11.459 2.245 13.979 5.763 27.93 10.454 41.463 1.803 5.202 7.491 7.988 12.724 6.173 5.218-1.809 7.981-7.505 6.173-12.724-4.312-12.438-7.543-25.251-9.604-38.084-.876-5.452-6.013-9.159-11.46-8.287z"/><path d="m341.269 36.751c5.123 2.088 10.954-.381 13.035-5.486 2.084-5.114-.372-10.95-5.486-13.035-13.263-5.404-27-9.682-40.833-12.713-5.393-1.181-10.727 2.232-11.909 7.627s2.233 10.727 7.628 11.909c12.719 2.787 25.358 6.723 37.565 11.698z"/><path d="m256.023 445.87c104.123 0 190-84.604 190-190 0-104.586-85.067-190-190-190-113.555 0-190 93.399-190 190 0 104.766 85.233 190 190 190zm69.671-34.942c.21-1.666.329-3.353.329-5.058 0-22.056-17.944-40-40-40h-60c-11.028 0-20-8.972-20-20s8.972-20 20-20h80c22.056 0 40-17.944 40-40 0-11.028 8.972-20 20-20.01h59.698c-3.769 64.65-43.811 119.709-100.027 145.068zm59.831-265.058c10.223 12.017 18.814 25.462 25.409 40h-44.911c-11.028 0-20-8.972-20-20s8.972-20 20-20zm-20.073-19.986c-21.792.308-39.429 18.121-39.429 39.986 0 22.056 17.944 40 40 40h52.492c3.935 12.762 6.399 26.162 7.206 40h-59.698c-22.056 0-40 17.944-40 40 0 11.028-8.972 20-20 20h-80c-22.056 0-40 17.944-40 40s17.944 40 40 40h60c11.028 0 20 8.972 20 20 0 5.377-2.137 10.446-5.914 14.191-14.066 3.781-28.843 5.809-44.086 5.809-90.381 0-164.503-70.899-169.698-160h38.535c22.124 0 41.74-17.362 41.171-39.466-.291-11.275 8.733-20.534 19.992-20.534h60c22.056 0 40-17.944 40-40s-17.944-40-40-40h-20c-10.727 0-20.256-8.437-20.011-19.064.102-4.424-.506-8.748-1.787-12.857 16.339-5.239 33.741-8.079 51.797-8.079 41.648 0 79.837 15.062 109.43 40.014zm-179.978-24.668c.394 1.66.584 3.378.544 5.131-.504 21.859 18.023 39.523 40.005 39.523h20c11.028 0 20 8.972 20 20s-8.972 20-20 20h-60c-22.519 0-40.566 18.519-39.986 41.049.279 10.78-10.379 18.951-21.177 18.951h-38.535c3.749-64.302 43.395-119.12 99.149-144.654z"/></g></g></g></svg>