<svg id="Capa_1" enable-background="new 0 0 512 512" height="512" viewBox="0 0 512 512" width="512" xmlns="http://www.w3.org/2000/svg"><g><g><g><path d="m226 70c-66.274 0-120 53.726-120 120v312h240v-312c0-66.274-53.726-120-120-120z" fill="#ffe6b3"/></g></g><g><g fill="#ffa96b"><path d="m236 256c0-5.523-4.477-10-10-10s-10 4.477-10 10v21.266c-17.233 4.452-30 20.13-30 38.734 0 22.056 17.944 40 40 40 11.028 0 20 8.972 20 20s-8.972 20-20 20c-8.1 0-15.349-4.83-18.469-12.305-2.128-5.097-7.985-7.504-13.08-5.377-5.097 2.127-7.504 7.983-5.377 13.08 4.915 11.777 14.966 20.245 26.926 23.317v21.285c0 5.523 4.477 10 10 10s10-4.477 10-10v-21.266c17.233-4.452 30-20.13 30-38.734 0-22.056-17.944-40-40-40-11.028 0-20-8.972-20-20s8.972-20 20-20c8.1 0 15.35 4.83 18.469 12.305 2.126 5.097 7.98 7.506 13.08 5.377 5.097-2.127 7.504-7.983 5.377-13.08-4.915-11.777-14.965-20.245-26.926-23.318z"/><path d="m316 0c-40.933 0-76.194 24.725-91.651 60.021-70.923.888-128.349 58.849-128.349 129.979v312c0 5.523 4.477 10 10 10h240c5.522 0 10-4.477 10-10v-312c0-64.921-47.836-118.879-110.112-128.48 13.625-24.726 39.941-41.52 70.112-41.52 44.112 0 80 35.888 80 80v90c0 5.523 4.478 10 10 10s10-4.477 10-10v-90c0-55.14-44.859-100-100-100zm20 190v302h-220v-302c0-57.948 45.042-105.57 101.954-109.704-1.279 6.372-1.954 12.961-1.954 19.704v30c0 5.523 4.477 10 10 10s10-4.477 10-10v-30c0-6.654.83-13.116 2.368-19.301 54.853 6.167 97.632 52.828 97.632 109.301z"/></g><g><path d="m226 180c-16.542 0-30-13.458-30-30s13.458-30 30-30 30 13.458 30 30-13.458 30-30 30z" fill="#fff"/></g></g></g></svg>