<svg id="Capa_1" enable-background="new 0 0 512 512" height="512" viewBox="0 0 512 512" width="512" xmlns="http://www.w3.org/2000/svg"><g><g><circle cx="196" cy="150" fill="#fcc" r="140"/><path d="m196 330c-16.569 0-30 13.431-30 30v112c0 16.569 13.431 30 30 30s30-13.431 30-30v-112c0-16.569-13.431-30-30-30z" fill="#fcc"/><circle cx="472" cy="174" fill="#ff99ad" r="30"/><g fill="#fff"><circle cx="40" cy="306" r="30"/><circle cx="346" cy="300" r="30"/></g></g><circle cx="196" cy="150" fill="#ff99ad" r="30"/><path d="m472 134c-22.056 0-40 17.944-40 40 0 7.408 2.031 14.346 5.555 20.302l-71.254 71.253c-5.955-3.524-12.894-5.555-20.301-5.555s-14.346 2.031-20.302 5.555l-16.85-16.849c23.119-26.398 37.152-60.942 37.152-98.706 0-82.71-67.29-150-150-150s-150 67.29-150 150c0 37.764 14.033 72.308 37.151 98.706l-22.85 22.849c-5.955-3.524-12.894-5.555-20.301-5.555-22.056 0-40 17.944-40 40s17.944 40 40 40 40-17.944 40-40c0-7.408-2.031-14.346-5.555-20.302l22.849-22.849c24.048 21.061 54.86 34.571 88.706 36.81v21.607c-17.233 4.452-30 20.13-30 38.734v112c0 22.056 17.944 40 40 40s40-17.944 40-40v-112c0-18.604-12.767-34.282-30-38.734v-21.607c33.846-2.239 64.658-15.749 88.706-36.81l16.849 16.849c-3.524 5.956-5.555 12.894-5.555 20.302 0 22.056 17.944 40 40 40s40-17.944 40-40c0-7.408-2.031-14.346-5.555-20.302l71.254-71.253c5.955 3.524 12.894 5.555 20.301 5.555 22.056 0 40-17.944 40-40s-17.944-40-40-40zm-432 192c-11.028 0-20-8.972-20-20s8.972-20 20-20 20 8.972 20 20-8.972 20-20 20zm176 34v112c0 11.028-8.972 20-20 20s-20-8.972-20-20v-112c0-11.028 8.972-20 20-20s20 8.972 20 20zm-20-80c-32.249 0-61.79-11.808-84.535-31.322l64.234-64.233c5.955 3.524 12.894 5.555 20.301 5.555s14.346-2.031 20.302-5.555l64.234 64.233c-22.746 19.514-52.287 31.322-84.536 31.322zm-20-130c0-11.028 8.972-20 20-20s20 8.972 20 20-8.972 20-20 20-20-8.972-20-20zm118.678 84.535-64.233-64.233c3.524-5.956 5.555-12.894 5.555-20.302 0-22.056-17.944-40-40-40s-40 17.944-40 40c0 7.408 2.031 14.346 5.555 20.302l-64.233 64.233c-19.514-22.746-31.322-52.286-31.322-84.535 0-71.682 58.317-130 130-130s130 58.318 130 130c0 32.249-11.808 61.789-31.322 84.535zm51.322 85.465c-11.028 0-20-8.972-20-20s8.972-20 20-20 20 8.972 20 20-8.972 20-20 20zm126-126c-11.028 0-20-8.972-20-20s8.972-20 20-20 20 8.972 20 20-8.972 20-20 20z" fill="#ff6684"/></g></svg>