<svg id="Capa_1" enable-background="new 0 0 512 512" height="512" viewBox="0 0 512 512" width="512" xmlns="http://www.w3.org/2000/svg"><g><g><path d="m296 10h-200c-11.046 0-20 8.954-20 20v452c0 11.046 8.954 20 20 20h200c11.046 0 20-8.954 20-20 0-36.472 0-438.013 0-452 0-11.046-8.954-20-20-20z" fill="#fff"/><path d="m396 376h-220c-22.091 0-40-17.909-40-40v-160c0-22.091 17.909-40 40-40h220c22.091 0 40 17.909 40 40v160c0 22.091-17.909 40-40 40z" fill="#fcc"/></g><g><path d="m66 482c0 16.542 13.458 30 30 30h200c16.542 0 30-13.458 30-30v-96h70c27.57 0 50-22.43 50-50v-160c0-27.57-22.43-50-50-50h-70v-96c0-16.542-13.458-30-30-30h-200c-16.542 0-30 13.458-30 30zm360-306v160c0 16.542-13.458 30-30 30h-220c-16.542 0-30-13.458-30-30v-160c0-16.542 13.458-30 30-30h220c16.542 0 30 13.458 30 30zm-340-146c0-5.514 4.486-10 10-10h200c5.514 0 10 4.486 10 10v96h-130c-27.57 0-50 22.43-50 50v160c0 27.57 22.43 50 50 50h130v96c0 5.514-4.486 10-10 10h-200c-5.514 0-10-4.486-10-10z" fill="#ff6684"/><path d="m251.152 197.253c-3.18 1.762-5.152 5.111-5.152 8.747v100c0 3.635 1.973 6.984 5.152 8.747 3.126 1.732 7.012 1.693 10.147-.267l80-50c2.924-1.827 4.7-5.032 4.7-8.48s-1.776-6.653-4.7-8.48l-80-50c-3.082-1.927-6.969-2.03-10.147-.267z" fill="#fff"/><g fill="#ff6684"><path d="m176 449h40c5.523 0 10-4.477 10-10s-4.477-10-10-10h-40c-5.523 0-10 4.477-10 10s4.477 10 10 10z"/><path d="m176 83h40c5.523 0 10-4.477 10-10s-4.477-10-10-10h-40c-5.523 0-10 4.477-10 10s4.477 10 10 10z"/></g></g></g></svg>