<svg id="Capa_1" enable-background="new 0 0 511.983 511.983" height="512" viewBox="0 0 511.983 511.983" width="512" xmlns="http://www.w3.org/2000/svg"><g><g><g><g><path d="m154.844 484.442c-23.431 23.431-61.421 23.431-84.853 0l-42.426-42.426c-23.431-23.431-23.431-61.421 0-84.853l94.076-94.076c23.431-23.431 61.419-23.431 84.851-.002-29.233 29.236-136.501 136.504-136.501 136.504l42.426 42.426s87.284-87.284 136.503-136.503c23.431 23.432 23.431 61.422 0 84.853-7.44 7.441-97.555 97.556-94.076 94.077z" fill="#ffe6b3"/></g></g><g><path d="m484.418 154.869c23.431-23.431 23.431-61.421 0-84.853l-42.426-42.426c-23.431-23.431-61.421-23.431-84.853 0l-94.076 94.076c-23.431 23.431-23.431 61.419-.002 84.851 31.438-31.434 136.504-136.501 136.504-136.501l42.426 42.426s-105.066 105.067-136.503 136.503c23.432 23.431 61.422 23.431 84.853-.001 4.756-4.754 95.473-95.471 94.077-94.075z" fill="#fff"/></g><path d="m178.21 347.94-14.142-14.142c-7.81-7.81-7.81-20.474 0-28.284l141.421-141.421c7.81-7.81 20.474-7.81 28.284 0l14.142 14.142c7.81 7.81 7.81 20.474 0 28.284l-141.421 141.421c-7.811 7.81-20.474 7.81-28.284 0z" fill="#ffcd69"/></g><g><g><path d="m491.489 62.944-42.427-42.426c-27.357-27.356-71.635-27.359-98.995 0l-94.076 94.076c-25.074 25.075-27.043 64.154-6.567 91.42l-43.443 43.444c-27.397-20.511-66.519-18.333-91.411 6.558l-94.076 94.076c-27.292 27.293-27.292 71.702 0 98.995l42.427 42.426c27.292 27.292 71.701 27.294 98.995 0l94.076-94.076c25.074-25.075 27.043-64.154 6.567-91.42l43.443-43.443c27.555 20.63 66.642 18.211 91.411-6.558l94.076-94.076c27.292-27.293 27.292-71.702 0-98.996zm-178.929 108.219c3.897-3.899 10.243-3.9 14.143 0l14.142 14.143c3.898 3.897 3.899 10.237.005 14.137-.002.002-.008.008-.009.01-19.531 19.531-127.553 127.553-141.416 141.416-3.907 3.908-10.233 3.909-14.142 0l-14.143-14.142c-3.898-3.897-3.899-10.237-.005-14.137.002-.002.008-.008.009-.01 19.531-19.532 127.552-127.553 141.416-141.417zm48.281 8.287c-1.428-2.998-3.376-5.808-5.854-8.287l-14.142-14.143c-2.479-2.479-5.29-4.427-8.288-5.855l67.008-67.008 28.284 28.284zm-209.699 153.132c1.428 2.998 3.376 5.808 5.854 8.287l14.143 14.142c2.447 2.447 5.243 4.416 8.275 5.867l-66.995 66.996-28.285-28.284zm90.707 50.713-94.076 94.076c-19.49 19.491-51.213 19.497-70.71 0l-42.427-42.426c-19.494-19.495-19.494-51.216 0-70.711l94.076-94.076c17.073-17.075 43.525-19.194 62.928-6.36-6.77 6.77-122.046 122.046-128.72 128.72-1.875 1.875-2.929 4.419-2.929 7.071s1.054 5.196 2.929 7.071l42.427 42.426c3.906 3.905 10.236 3.905 14.143 0 6.672-6.672 121.955-121.955 128.725-128.725 12.757 19.214 10.899 45.67-6.366 62.934zm141.422-141.422c-17.246 17.247-43.699 19.137-62.934 6.366 21.433-21.433 96.135-96.135 128.726-128.726 3.903-3.904 3.904-10.238 0-14.143l-42.427-42.426c-3.906-3.905-10.236-3.905-14.143 0-6.671 6.672-121.955 121.956-128.725 128.726-12.757-19.213-10.899-45.67 6.366-62.933l94.076-94.076c19.495-19.495 51.217-19.494 70.71 0l42.427 42.426c19.494 19.495 19.494 51.216 0 70.711z" fill="#ffa96b"/></g></g></g></svg>