<svg id="Capa_1" enable-background="new 0 0 512 512" height="512" viewBox="0 0 512 512" width="512" xmlns="http://www.w3.org/2000/svg"><g><g><circle cx="100" cy="136" fill="#ccf" r="90"/><g><circle cx="280" cy="136" fill="#ccf" r="90"/><circle cx="100" cy="136" fill="#fff" r="30"/><circle cx="280" cy="136" fill="#fff" r="30"/><path d="m10 226h360v240h-360z" fill="#ccf"/><path d="m370 306v80l132 40v-160z" fill="#fff"/></g></g><g><g fill="#b578d3"><path d="m100 96c-22.056 0-40 17.944-40 40s17.944 40 40 40 40-17.944 40-40-17.944-40-40-40zm0 60c-11.028 0-20-8.972-20-20s8.972-20 20-20 20 8.972 20 20-8.972 20-20 20z"/><path d="m280 176c22.056 0 40-17.944 40-40s-17.944-40-40-40-40 17.944-40 40 17.944 40 40 40zm0-60c11.028 0 20 8.972 20 20s-8.972 20-20 20-20-8.972-20-20 8.972-20 20-20z"/><path d="m499.1 256.43-119.1 36.091v-66.521c0-5.522-4.478-10-10-10h-30.066c24.311-18.259 40.066-47.324 40.066-80 0-55.141-44.859-100-100-100-39.533 0-73.779 23.061-90 56.435-16.221-33.374-50.467-56.435-90-56.435-55.14 0-100 44.859-100 100 0 32.676 15.755 61.741 40.066 80h-30.066c-5.523 0-10 4.478-10 10v240c0 5.522 4.477 10 10 10h360c5.522 0 10-4.478 10-10v-66.521l119.1 36.091c6.407 1.938 12.9-2.851 12.9-9.57v-160c0-6.701-6.475-11.513-12.9-9.57zm-219.1-200.43c44.112 0 80 35.888 80 80s-35.888 80-80 80-80-35.888-80-80 35.888-80 80-80zm-59.934 160h-60.132c12.699-9.538 23.062-22.025 30.066-36.435 7.003 14.41 17.366 26.897 30.066 36.435zm-200.066-80c0-44.112 35.888-80 80-80s80 35.888 80 80-35.888 80-80 80-80-35.888-80-80zm0 320v-220h340v220zm472-43.479-112-33.939v-65.162l112-33.939z"/></g><path d="m190 276h-120c-5.523 0-10 4.478-10 10v60c0 5.522 4.477 10 10 10h120c5.523 0 10-4.478 10-10v-60c0-5.522-4.477-10-10-10z" fill="#fff"/><circle cx="250" cy="286" fill="#b578d3" r="10"/><ellipse cx="310" cy="286" fill="#b578d3" rx="10" ry="10" transform="matrix(.987 -.16 .16 .987 -41.809 53.35)"/></g></g></svg>