<svg id="Capa_1" enable-background="new 0 0 512.009 512.009" height="512" viewBox="0 0 512.009 512.009" width="512" xmlns="http://www.w3.org/2000/svg"><g><g><path d="m478.031 433.379c17.581-27.174 26.614-60.395 23.29-95.856-6.476-69.095-61.995-126.218-130.907-134.42-24.609-2.929-48.216.105-69.565 7.849l-89.394 88.528c-6.911 18.485-10.28 38.699-9.281 59.816 3.828 80.855 74.245 142.708 155.191 142.708h144.636c-27.67-10.376-40.023-43.814-23.97-68.625z" fill="#fff"/><path d="m33.971 241.379c16.053 24.811 3.7 58.249-23.97 68.625h144.636c80.945 0 151.363-61.854 155.191-142.708 4.095-86.494-65.104-157.847-150.827-157.288-82.399.537-149.535 68.447-148.996 150.996.193 29.617 8.97 57.196 23.966 80.375z" fill="#fcc"/></g><g><path d="m511.277 336.589c-6.915-73.796-66.158-134.665-139.681-143.416-19-2.263-37.691-1.27-55.787 2.934 2.195-9.233 3.552-18.706 4.009-28.339 4.364-92.222-69.04-167.764-159.796-167.764-88.618.001-160.595 72.656-160.017 161.065.199 30.546 9.042 60.195 25.571 85.741 5.727 8.853 7.063 19.831 3.667 30.119-3.635 11.009-11.928 19.651-22.753 23.711-4.527 1.697-7.191 6.391-6.329 11.147.863 4.757 5.005 8.216 9.84 8.216h144.637c14.204 0 28.204-1.779 41.714-5.214-3.488 14.612-4.892 29.672-4.167 44.979 4.077 86.073 78.669 152.235 165.18 152.235h144.637c4.835 0 8.977-3.459 9.84-8.216.862-4.757-1.802-9.45-6.329-11.147-22.095-8.286-31.449-34.72-19.086-53.829 19.675-30.409 28.268-65.757 24.85-102.222zm-471.816-36.585c3.77-5.01 6.747-10.665 8.774-16.804 5.305-16.068 3.166-33.291-5.868-47.253 0-.001 0-.001 0-.001-14.455-22.341-22.188-48.278-22.362-75.008-.503-77.112 62.326-140.933 140.012-140.933 79.184 0 143.655 65.897 139.822 146.818-3.477 73.436-68.613 133.181-145.201 133.181zm433.08 192h-115.177c-76.588 0-141.725-59.745-145.201-133.181-.841-17.756 1.58-35.119 7.185-51.68 39.157-16.248 72.416-47.547 89.121-88.239 19.476-6.378 39.892-8.357 60.763-5.872 64.678 7.699 116.042 60.447 122.132 125.424 2.994 31.946-4.52 62.892-21.729 89.491-13.041 20.154-10.964 45.624 2.906 64.057z" fill="#ff6684"/><path d="m215.301 151.524-80-50c-3.082-1.926-6.97-2.028-10.147-.266-3.18 1.762-5.152 5.11-5.152 8.746v100c0 3.636 1.973 6.984 5.152 8.746 3.124 1.733 7.012 1.693 10.147-.266l80-50c2.924-1.828 4.7-5.032 4.7-8.48s-1.776-6.652-4.7-8.48z" fill="#fff"/><g fill="#ff6684"><path d="m442.001 352.004h-179.999c-5.522 0-10 4.478-10 10s4.478 10 10 10h179.999c5.522 0 10-4.478 10-10s-4.477-10-10-10z"/><path d="m342.001 312.004h60c5.522 0 10-4.478 10-10s-4.478-10-10-10h-60c-5.522 0-10 4.478-10 10s4.478 10 10 10z"/><path d="m402.001 412.004h-100c-5.522 0-10 4.478-10 10s4.478 10 10 10h100c5.522 0 10-4.478 10-10s-4.477-10-10-10z"/></g></g></g></svg>