<svg id="Capa_1" enable-background="new 0 0 512 512" height="512" viewBox="0 0 512 512" width="512" xmlns="http://www.w3.org/2000/svg"><g><g><path d="m10 10h312v492h-312z" fill="#cef"/><path d="m116 10v46c0 11.046 8.954 20 20 20h60c11.046 0 20-8.954 20-20v-46z" fill="#fff"/><g><g><path d="m382 406c0 32.456 10.527 70.036 30 96 19.473-25.964 30-63.544 30-96v-30h-60z" fill="#fff"/><path d="m382 136h60v240h-60z" fill="#cef"/><path d="m412 76c-16.568 0-30 13.431-30 30v30h60v-30c0-16.569-13.431-30-30-30z" fill="#fff"/></g></g></g><g><path d="m322 0h-312c-5.522 0-10 4.478-10 10v492c0 5.522 4.478 10 10 10h312c5.522 0 10-4.478 10-10v-492c0-5.522-4.478-10-10-10zm-196 20h80v36c0 5.514-4.486 10-10 10h-60c-5.514 0-10-4.486-10-10zm186 472h-292v-472h86v36c0 16.542 13.458 30 30 30h60c16.542 0 30-13.458 30-30v-36h86z" fill="#80aaff"/><path d="m76 206h60c5.522 0 10-4.478 10-10v-60c0-5.522-4.478-10-10-10h-60c-5.522 0-10 4.478-10 10v60c0 5.522 4.478 10 10 10z" fill="#fff"/><path d="m196 126c-5.522 0-10 4.478-10 10s4.478 10 10 10h60c5.522 0 10-4.478 10-10s-4.478-10-10-10z" fill="#80aaff"/><path d="m256 186h-60c-5.522 0-10 4.478-10 10s4.478 10 10 10h60c5.522 0 10-4.478 10-10s-4.478-10-10-10z" fill="#80aaff"/><path d="m256 246h-180c-5.522 0-10 4.478-10 10s4.478 10 10 10h180c5.522 0 10-4.478 10-10s-4.478-10-10-10z" fill="#80aaff"/><path d="m76 386h60c5.522 0 10-4.478 10-10v-60c0-5.522-4.478-10-10-10h-60c-5.522 0-10 4.478-10 10v60c0 5.522 4.478 10 10 10z" fill="#fff"/><g fill="#80aaff"><path d="m256 306h-60c-5.522 0-10 4.478-10 10s4.478 10 10 10h60c5.522 0 10-4.478 10-10s-4.478-10-10-10z"/><path d="m256 366h-60c-5.522 0-10 4.478-10 10s4.478 10 10 10h60c5.522 0 10-4.478 10-10s-4.478-10-10-10z"/><path d="m256 426h-180c-5.522 0-10 4.478-10 10s4.478 10 10 10h180c5.522 0 10-4.478 10-10s-4.478-10-10-10z"/><path d="m462 126h-10v-20c0-22.056-17.944-40-40-40s-40 17.944-40 40v300c0 36.599 12.262 75.683 32 102 1.889 2.519 4.853 4 8 4s6.111-1.481 8-4c19.738-26.317 32-65.401 32-102v-260h10c16.542 0 30 13.458 30 30v80c0 5.522 4.478 10 10 10s10-4.478 10-10v-80c0-27.57-22.43-50-50-50zm-50-40c11.028 0 20 8.972 20 20v20h-40v-20c0-11.028 8.972-20 20-20zm0 397.719c-12.521-22.078-20-50.597-20-77.719v-20h40v20c0 27.122-7.479 55.641-20 77.719zm20-117.719h-40v-220h40z"/></g></g></g></svg>