<svg id="Capa_1" enable-background="new 0 0 512 512" height="512" viewBox="0 0 512 512" width="512" xmlns="http://www.w3.org/2000/svg"><g><g><path d="m256 10-246 180v312h492v-312z" fill="#fff"/><g><g><path d="m120.441 70h295.559s0 156.494 0 248.17c-31.141 22.51-80.111 57.91-80.329 58.068-37.442-28.309-79.671-60.238-79.671-60.238s-42.698 32.284-79.671 60.239c-.22-.16-43.642-31.549-80.329-58.074 0-1.416 0-248.165 0-248.165s9.184 0 24.441 0z" fill="#ffe6b3"/></g></g></g><g><path d="m507.848 181.889-81.848-59.007v-52.882c0-5.522-4.477-10-10-10h-73.764l-80.378-58.105c-3.514-2.539-8.264-2.526-11.764.034l-79.362 58.071h-74.732c-5.523 0-10 4.478-10 10v52.882l-81.848 59.007c-2.607 1.878-4.152 4.897-4.152 8.111v312c0 5.523 4.552 10 10 10l491.968-.01c.008 0 .017.001.025.001 5.448 0 10.007-4.439 10.007-9.991v-312c0-3.214-1.545-6.233-4.152-8.111zm-487.848 93.679 139.51 100.851-139.51 105.483zm236 52.969 216.193 163.463h-432.386zm96.49 47.882 139.51-100.851v206.334zm139.51-181.301v55.771l-66 47.711v-151.063zm-235.964-172.753 52.061 37.635h-103.496zm149.964 57.635v233.058l-70.196 50.744-73.772-55.779c-3.568-2.697-8.494-2.697-12.063 0l-73.772 55.779-70.197-50.744v-233.058zm-320 67.537v151.063l-66-47.711v-55.771z" fill="#ffa96b"/><path d="m211.152 258.746c3.13 1.737 7.018 1.689 10.147-.266l80-50c2.924-1.828 4.7-5.032 4.7-8.48s-1.776-6.652-4.7-8.48l-80-50c-3.082-1.926-6.968-2.028-10.147-.266-3.18 1.762-5.152 5.11-5.152 8.746v100c0 3.636 1.973 6.984 5.152 8.746z" fill="#fff"/></g></g></svg>