<svg id="Capa_1" enable-background="new 0 0 512 512" height="512" viewBox="0 0 512 512" width="512" xmlns="http://www.w3.org/2000/svg"><g><g><path d="m10 10h492v492h-492z" fill="#ccffb3"/><path d="m196 10v186l60-60 60 60v-186z" fill="#fff"/></g><g><path d="m502 0h-492c-5.523 0-10 4.478-10 10v492c0 5.522 4.477 10 10 10h492c5.522 0 10-4.478 10-10v-492c0-5.522-4.478-10-10-10zm-296 20h100v151.857l-42.929-42.929c-3.906-3.904-10.236-3.904-14.143 0l-42.928 42.929zm286 472h-472v-472h166v176c0 4.045 2.437 7.691 6.173 9.239 3.738 1.546 8.038.691 10.898-2.168l52.929-52.928 52.929 52.929c2.861 2.861 7.161 3.714 10.898 2.168 3.736-1.548 6.173-5.194 6.173-9.239v-176.001h166z" fill="#53d0a6"/><path d="m316 306c-5.522 0-10 4.478-10 10v60c0 5.522 4.478 10 10 10h120c5.522 0 10-4.478 10-10v-60c0-5.522-4.478-10-10-10z" fill="#fff"/><path d="m436 426h-120c-5.522 0-10 4.478-10 10s4.478 10 10 10h120c5.522 0 10-4.478 10-10s-4.478-10-10-10z" fill="#53d0a6"/></g></g></svg>