<svg id="Capa_1" enable-background="new 0 0 512 512" height="512" viewBox="0 0 512 512" width="512" xmlns="http://www.w3.org/2000/svg"><g><g><path d="m316 270v112c0 33.137-26.863 60-60 60s-60-26.863-60-60v-112h-60v112c0 66.274 53.726 120 120 120s120-53.726 120-120v-112z" fill="#fff"/><circle cx="256" cy="40" fill="#fff" r="30"/><path d="m256 90c-33.137 0-60 26.863-60 60h120c0-33.137-26.863-60-60-60z" fill="#fcc"/><g fill="#ff99ad"><path d="m136 270v-60h60v60"/><path d="m316 270v-60h60v60"/></g></g><g><g fill="#ff6684"><path d="m126 210v172c0 71.683 58.317 130 130 130s130-58.317 130-130c0-19.068 0-154.045 0-172 0-5.522-4.478-10-10-10h-60c-5.522 0-10 4.478-10 10v172c0 27.57-22.43 50-50 50s-50-22.43-50-50c0-19.068 0-154.045 0-172 0-5.522-4.478-10-10-10h-60c-5.522 0-10 4.478-10 10zm240 10v40h-40v-40zm-110 232c38.598 0 70-31.402 70-70v-102h40v102c0 60.654-49.346 110-110 110s-110-49.346-110-110v-102h40v102c0 38.598 31.402 70 70 70zm-70-232v40h-40v-40z"/><path d="m296 40c0-22.056-17.944-40-40-40s-40 17.944-40 40 17.944 40 40 40 40-17.944 40-40zm-40 20c-11.028 0-20-8.972-20-20s8.972-20 20-20 20 8.972 20 20-8.972 20-20 20z"/><path d="m186 150c0 5.522 4.478 10 10 10h120c5.522 0 10-4.478 10-10 0-38.598-31.402-70-70-70s-70 31.402-70 70zm70-50c24.146 0 44.35 17.206 48.995 40h-97.99c4.645-22.794 24.849-40 48.995-40z"/><path d="m347.493 104.743c-1.821 2.947-1.987 6.629-.438 9.729l20 40c2.474 4.95 8.487 6.939 13.416 4.473 4.94-2.47 6.942-8.477 4.473-13.416l-12.763-25.529h23.819c3.466 0 6.685-1.795 8.507-4.743 1.821-2.947 1.987-6.629.438-9.729l-20-40c-2.471-4.941-8.479-6.943-13.416-4.473-4.94 2.47-6.942 8.477-4.473 13.416l12.763 25.529h-23.819c-3.466 0-6.685 1.795-8.507 4.743z"/><path d="m140.472 61.056c-4.94-2.47-10.946-.469-13.416 4.473l-20 40c-1.55 3.1-1.384 6.781.438 9.729s5.041 4.743 8.507 4.743h23.819l-12.764 25.528c-2.47 4.939-.468 10.946 4.473 13.416 4.939 2.47 10.947.467 13.416-4.473l20-40c1.55-3.1 1.384-6.781-.438-9.729s-5.041-4.743-8.507-4.743h-23.819l12.764-25.528c2.469-4.94.467-10.947-4.473-13.416z"/></g></g></g></svg>