<svg id="Capa_1" enable-background="new 0 0 512 512" height="512" viewBox="0 0 512 512" width="512" xmlns="http://www.w3.org/2000/svg"><g><g><path d="m336 256h-50v-74c29.201 11.8 50 40.6 50 74z" fill="#9df"/><path d="m286 392.764v-62.692c29.301-11.873 50-40.499 50-74.072h-110v-74c-29.2 11.801-50 40.601-50 74 0 33.573 20.699 62.2 50 74.072v62.692" fill="#cef"/><path d="m452.201 217.515c-5.206-26.587-15.629-51.321-30.26-73.025l24.978-36.982-42.427-42.427-36.982 24.978c-21.704-14.631-46.438-25.054-73.025-30.26l-8.485-49.799h-60l-8.485 49.799c-26.587 5.206-51.321 15.629-73.025 30.26l-36.982-24.978-42.427 42.427 24.978 36.982c-14.631 21.704-25.054 46.438-30.26 73.025l-49.799 8.485v60l49.799 8.485c5.206 26.587 15.629 51.321 30.26 73.025l-24.978 36.982 42.427 42.427 36.982-24.978c21.704 14.631 46.438 25.054 73.025 30.26l8.485 49.799h60l8.485-49.799c26.587-5.206 51.321-15.629 73.025-30.26l36.982 24.978 42.427-42.427-24.978-36.982c14.631-21.704 25.054-46.438 30.26-73.025l49.799-8.485v-60zm-196.201 187.985c-82.435 0-149.5-67.065-149.5-149.5s67.065-149.5 149.5-149.5 149.5 67.065 149.5 149.5-67.065 149.5-149.5 149.5z" fill="#fff"/></g><g><g fill="#80aaff"><path d="m256 106c-82.71 0-150 67.29-150 150 0 78.484 62.788 150 150 150 82.065 0 150-66.665 150-150 0-82.71-67.29-150-150-150zm-20 278.461v-54.389c0-4.072-2.47-7.738-6.245-9.269-26.58-10.769-43.755-36.206-43.755-64.803 0-22.868 11.608-44.33 30-57.244v57.234c0 5.522 4.477 10 10 10 6.77 0 83.321.01 99.291.01-3.487 24.411-19.611 45.309-43.046 54.804-3.775 1.53-6.245 5.195-6.245 9.269v54.389c-6.521 1.011-13.2 1.539-20 1.539s-13.479-.528-20-1.54zm60-138.461v-47.244c15.681 11.011 26.43 28.233 29.259 47.244zm0 133.695v-43.159c30.589-15.133 50-46.045 50-80.536 0-37.035-22.831-69.764-56.253-83.271-3.081-1.245-6.581-.878-9.339.98-2.756 1.859-4.408 4.967-4.408 8.291v64h-40v-64c0-3.324-1.652-6.432-4.409-8.291-2.755-1.856-6.254-2.227-9.338-.98-33.329 13.47-56.253 46.132-56.253 83.271 0 34.491 19.411 65.403 50 80.536v43.159c-52.17-16.911-90-65.964-90-123.695 0-71.683 58.318-130 130-130 71.683 0 130 58.317 130 130 0 57.731-37.83 106.784-90 123.695z"/><path d="m503.68 216.143-43.11-7.347c-5.255-22.862-14.189-44.403-26.63-64.203l21.267-31.488c2.681-3.969 2.171-9.281-1.216-12.668l-42.428-42.427c-3.388-3.386-8.699-3.895-12.668-1.216l-31.488 21.267c-19.8-12.44-41.341-21.375-64.203-26.63l-7.347-43.11c-.818-4.806-4.982-8.321-9.857-8.321h-60c-4.875 0-9.039 3.515-9.858 8.32l-7.345 43.11c-22.863 5.255-44.405 14.189-64.204 26.63l-31.488-21.267c-3.968-2.68-9.281-2.17-12.668 1.216l-42.427 42.428c-3.386 3.387-3.896 8.699-1.216 12.668l21.267 31.488c-12.44 19.799-21.375 41.34-26.63 64.203l-43.111 7.347c-4.805.818-8.32 4.982-8.32 9.857v60c0 4.875 3.515 9.039 8.32 9.857l43.111 7.347c5.255 22.863 14.189 44.404 26.63 64.203l-21.267 31.488c-2.681 3.969-2.17 9.281 1.216 12.668l42.427 42.427c3.387 3.384 8.698 3.896 12.668 1.216l31.488-21.267c19.799 12.44 41.341 21.375 64.204 26.63l7.345 43.11c.819 4.806 4.983 8.32 9.858 8.32h60c4.875 0 9.039-3.515 9.857-8.32l7.347-43.11c22.862-5.255 44.403-14.189 64.203-26.63l31.488 21.267c3.968 2.681 9.28 2.17 12.668-1.216l42.427-42.427c3.387-3.387 3.896-8.699 1.216-12.668l-21.267-31.488c12.44-19.8 21.375-41.341 26.63-64.203l43.11-7.347c4.806-.818 8.32-4.982 8.32-9.857v-60c.001-4.875-3.514-9.039-8.319-9.857zm-11.68 61.417-41.479 7.068c-4.097.697-7.335 3.857-8.134 7.936-4.895 24.994-14.563 48.329-28.738 69.356-2.279 3.382-2.277 7.808.005 11.187l20.361 30.147-30.762 30.762-30.147-20.361c-3.378-2.281-7.805-2.284-11.187-.005-21.027 14.175-44.362 23.844-69.356 28.738-4.078.799-7.238 4.037-7.936 8.134l-7.067 41.478h-43.12l-7.067-41.479c-.698-4.097-3.857-7.335-7.937-8.134-24.994-4.895-48.329-14.563-69.356-28.738-3.381-2.279-7.808-2.276-11.187.005l-30.146 20.361-30.762-30.762 20.361-30.147c2.282-3.379 2.284-7.806.005-11.187-14.175-21.026-23.844-44.361-28.739-69.356-.798-4.078-4.037-7.238-8.134-7.936l-41.478-7.067v-43.12l41.479-7.068c4.097-.697 7.335-3.857 8.134-7.936 4.895-24.995 14.564-48.33 28.739-69.356 2.279-3.381 2.277-7.808-.005-11.187l-20.361-30.147 30.762-30.762 30.146 20.361c3.38 2.281 7.806 2.284 11.187.005 21.028-14.175 44.363-23.844 69.356-28.738 4.079-.799 7.238-4.037 7.937-8.134l7.066-41.478h43.119l7.068 41.479c.697 4.097 3.857 7.335 7.936 8.134 24.994 4.895 48.329 14.563 69.356 28.738 3.382 2.279 7.809 2.276 11.187-.005l30.147-20.361 30.762 30.762-20.361 30.147c-2.282 3.379-2.284 7.805-.005 11.187 14.175 21.027 23.844 44.362 28.738 69.356.799 4.078 4.037 7.238 8.134 7.936l41.479 7.067z"/></g></g></g></svg>