<svg id="Capa_1" enable-background="new 0 0 512 512" height="512" viewBox="0 0 512 512" width="512" xmlns="http://www.w3.org/2000/svg"><g><g><g><path d="m10 10h492v386h-492z" fill="#fcc"/><g fill="#fff"><path d="m216 396h80v106h-80z"/><g><path d="m136 273h40v60h-40z"/><path d="m216 213h40v120h-40z"/><path d="m296 273h40v60h-40z"/><path d="m376 213h40v120h-40z"/></g></g></g></g><g><g fill="#ff6684"><path d="m502 0h-492c-5.522 0-10 4.478-10 10v386c0 5.522 4.478 10 10 10h196v86h-50c-5.522 0-10 4.478-10 10s4.478 10 10 10h200c5.522 0 10-4.478 10-10s-4.478-10-10-10h-50v-86h196c5.522 0 10-4.478 10-10v-386c0-5.522-4.478-10-10-10zm-216 492h-60v-86h60zm206-106h-472v-366h472z"/><path d="m177.214 185.929 51.716-51.715c3.905-3.905 3.905-10.237 0-14.143-3.905-3.903-10.235-3.904-14.143 0l-51.716 51.715c-3.905 3.905-3.905 10.237 0 14.143 3.907 3.904 10.235 3.905 14.143 0z"/><path d="m294.787 185.929c3.906 3.904 10.235 3.906 14.143 0 3.905-3.905 3.905-10.237 0-14.143l-51.716-51.715c-3.906-3.904-10.236-3.904-14.143 0-3.905 3.905-3.905 10.237 0 14.143z"/><path d="m337.214 185.929 51.716-51.715c3.905-3.905 3.905-10.237 0-14.143-3.905-3.903-10.235-3.904-14.143 0l-51.716 51.715c-3.905 3.905-3.905 10.237 0 14.143 3.907 3.904 10.235 3.905 14.143 0z"/><path d="m96 343h320c5.522 0 10-4.478 10-10v-120c0-5.522-4.478-10-10-10h-40c-5.522 0-10 4.478-10 10v110h-20v-50c0-5.522-4.478-10-10-10h-40c-5.522 0-10 4.478-10 10v50h-20v-110c0-5.522-4.478-10-10-10h-40c-5.522 0-10 4.478-10 10v110h-20v-50c0-5.522-4.478-10-10-10h-40c-5.522 0-10 4.478-10 10v50h-20v-250c0-5.522-4.478-10-10-10s-10 4.478-10 10v260c0 5.522 4.478 10 10 10zm290-120h20v100h-20zm-80 60h20v40h-20zm-80-60h20v100h-20zm-80 60h20v40h-20z"/></g><g><path d="m316 223c-16.542 0-30-13.458-30-30s13.458-30 30-30 30 13.458 30 30-13.458 30-30 30z" fill="#fff"/></g><g><path d="m236 143c-16.542 0-30-13.458-30-30s13.458-30 30-30 30 13.458 30 30-13.458 30-30 30z" fill="#fff"/></g><g><path d="m156 223c-16.542 0-30-13.458-30-30s13.458-30 30-30 30 13.458 30 30-13.458 30-30 30z" fill="#fff"/></g><g><path d="m396 143c-16.542 0-30-13.458-30-30s13.458-30 30-30 30 13.458 30 30-13.458 30-30 30z" fill="#fff"/></g></g></g></svg>