<svg id="Capa_1" enable-background="new 0 0 512.001 512.001" height="512" viewBox="0 0 512.001 512.001" width="512" xmlns="http://www.w3.org/2000/svg"><g><g><path d="m10.001 76h492v300h-492z" fill="#cef"/><path d="m76.001 226c0-49.8 40.2-90 90-90v90.003c30.179-.003 90-.003 90-.003 0 49.8-40.2 90-90 90-49.797 0-90-40.197-90-90z" fill="#fff"/><path d="m256.001 226h-90v-90c49.799 0 90 40.2 90 90z" fill="#9df"/></g><g><g fill="#80aaff"><path d="m502 66h-169.572l-6.492-57.129c-.574-5.054-4.85-8.871-9.936-8.871h-120c-5.086 0-9.362 3.817-9.936 8.871l-6.492 57.129h-169.572c-5.522 0-10 4.478-10 10v300c0 5.522 4.477 10 10 10h129.74l-13.669 114.818c-.653 5.483 3.264 10.459 8.748 11.111 5.484.653 10.459-3.263 11.112-8.748l13.949-117.181h86.12v56c0 5.522 4.477 10 10 10s10-4.478 10-10v-56h86.12l13.95 117.182c.653 5.484 5.628 9.402 11.112 8.748 5.484-.652 9.4-5.628 8.748-11.111l-13.669-114.819h129.739c5.523 0 10-4.478 10-10v-300c0-5.522-4.477-10-10-10zm-297.071-46h102.144l5.227 46h-112.599zm287.071 346h-472v-280h472z"/><path d="m166 126c-55.14 0-100 44.859-100 100s44.86 100 100 100 100-44.859 100-100-44.859-100-100-100zm0 180c-44.112 0-80-35.888-80-80 0-40.724 30.593-74.414 70-79.353v79.353c0 5.522 4.477 10 10 9.99h79.353c-4.939 39.416-38.629 70.01-79.353 70.01zm10-90v-69.378c36.131 4.526 64.852 33.247 69.378 69.378z"/><path d="m316 126c-5.523 0-10 4.478-10 10s4.477 10 10 10h120c5.523 0 10-4.478 10-10s-4.477-10-10-10z"/><path d="m436 186h-120c-5.523 0-10 4.478-10 10s4.477 10 10 10h120c5.523 0 10-4.478 10-10s-4.477-10-10-10z"/><path d="m436 246h-120c-5.523 0-10 4.478-10 10s4.477 10 10 10h120c5.523 0 10-4.478 10-10s-4.477-10-10-10z"/><path d="m436 306h-120c-5.523 0-10 4.478-10 10s4.477 10 10 10h120c5.523 0 10-4.478 10-10s-4.477-10-10-10z"/></g></g></g></svg>