<svg id="Capa_1" enable-background="new 0 0 512 512" height="512" viewBox="0 0 512 512" width="512" xmlns="http://www.w3.org/2000/svg"><g><g><path d="m10 316h492v60h-492z" fill="#fff"/><path d="m10 76h492v240h-492z" fill="#ccffb3"/><path d="m436 236v-80c-11.046 0-20-8.954-20-20h-320c0 11.046-8.954 20-20 20v80c11.046 0 20 8.954 20 20h320c0-11.046 8.954-20 20-20z" fill="#9affbc"/><ellipse cx="256" cy="196" fill="#fff" rx="50" ry="70"/><path d="m10 376h492v60h-492z" fill="#ccffb3"/><path d="m226 316h60v120h-60z" fill="#fff"/></g><g fill="#53d0a6"><path d="m502 66h-492c-5.523 0-10 4.478-10 10v360c0 5.522 4.477 10 10 10h492c5.523 0 10-4.478 10-10v-360c0-5.522-4.477-10-10-10zm-206 260h196v40h-196zm-276-240h472v220h-472zm196 280h-196v-40h196zm-196 20h196v40h-196zm256 40h-40v-100h40zm20 0v-40h196v40z"/><path d="m426 256c0-5.514 4.486-10 10-10 5.523 0 10-4.478 10-10v-80c0-5.522-4.477-10-10-10-5.514 0-10-4.486-10-10 0-5.522-4.477-10-10-10h-320c-5.523 0-10 4.478-10 10 0 5.514-4.486 10-10 10-5.523 0-10 4.478-10 10v80c0 5.522 4.477 10 10 10 5.514 0 10 4.486 10 10 0 5.522 4.477 10 10 10h320c5.523 0 10-4.478 10-10zm-18.287-10h-303.426c-3.018-8.512-9.775-15.269-18.287-18.286v-63.428c8.512-3.018 15.269-9.774 18.287-18.286h303.427c3.018 8.512 9.775 15.269 18.287 18.286v63.428c-8.513 3.017-15.27 9.774-18.288 18.286z"/><path d="m156 186h-20c-5.523 0-10 4.478-10 10s4.477 10 10 10h20c5.523 0 10-4.478 10-10s-4.477-10-10-10z"/><path d="m376 186h-20c-5.523 0-10 4.478-10 10s4.477 10 10 10h20c5.523 0 10-4.478 10-10s-4.477-10-10-10z"/></g></g></svg>