<svg id="Capa_1" enable-background="new 0 0 512 512" height="512" viewBox="0 0 512 512" width="512" xmlns="http://www.w3.org/2000/svg"><g><g><path d="m170 296.001h-60l20 160h60z" fill="#fff"/><path d="m70 176.001h120v120h-120z" fill="#fcc"/><path d="m190 176.001v120c99.885 9.989 190.891-2.219 252 120v-360c-61.243 122.487-151.02 109.902-252 120z" fill="#fff"/><path d="m442 196.001 60 10v60l-60 10" fill="#ff99ad"/><path d="m10 196.001h60v80h-60z" fill="#fff"/></g><path d="m503.644 196.137-51.644-8.608v-131.528c0-4.638-3.188-8.667-7.702-9.732-4.517-1.068-9.168 1.113-11.242 5.261-58.243 116.485-139.213 104.116-243.517 114.472h-119.539c-5.522 0-10 4.478-10 10v10h-50c-5.522 0-10 4.478-10 10v80c0 5.522 4.478 10 10 10h50v10c0 5.522 4.478 10 10 10h31.172l18.905 151.24c.626 5.005 4.88 8.76 9.923 8.76h60c2.868 0 5.599-1.231 7.497-3.382s2.781-5.013 2.426-7.858l-18.595-148.76h8.211c99.569 9.88 185.358-1.846 243.517 114.472 1.722 3.443 5.221 5.529 8.942 5.529 5.513 0 10.002-4.471 10.002-10.001v-131.53l51.644-8.607c4.822-.804 8.356-4.976 8.356-9.864v-60c0-4.889-3.534-9.061-8.356-9.864zm-483.644 69.864v-60h40v60zm60-80h100v100h-100zm98.672 260h-39.844l-17.5-140h39.844zm253.328-67.05c-60.886-89.64-144.024-84.288-232-92.061v-101.778c87.493-7.735 170.893-1.959 232-92.04zm60-121.422-40 6.667v-56.39l40 6.667z" fill="#ff6684"/></g></svg>