<svg id="Capa_1" enable-background="new 0 0 512.001 512.001" height="512" viewBox="0 0 512.001 512.001" width="512" xmlns="http://www.w3.org/2000/svg"><g><g><path d="m336.001 10.001-80 120-80-120-49.922 33.281 93.867 140.801-3.945 5.918h72.109l97.812-146.719z" fill="#fff"/><path d="m10.001 190.001h492v312h-492z" fill="#ccf"/></g><g><g fill="#b578d3"><path d="m502.001 180.001h-195.206l87.448-131.172c3.063-4.595 1.822-10.804-2.773-13.867l-49.923-33.281c-4.596-3.063-10.805-1.823-13.867 2.773l-71.68 107.52-71.68-107.52c-3.063-4.596-9.271-5.837-13.867-2.773l-49.922 33.281c-4.596 3.063-5.837 9.272-2.773 13.867l87.448 131.172h-195.205c-5.522 0-10 4.478-10 10v312c0 5.522 4.478 10 10 10h492c5.522 0 10-4.478 10-10v-312c0-5.522-4.478-10-10-10zm-163.227-156.133 33.281 22.188-89.297 133.945h-48.073c10.456-15.683 93.698-140.547 104.089-156.133zm-165.547 0 70.755 106.133-24.036 36.055-80-120zm318.774 468.133h-472v-292h472z"/><path d="m256.001 266.001h20c5.522 0 10-4.478 10-10s-4.478-10-10-10h-20c-5.522 0-10 4.478-10 10 0 5.523 4.477 10 10 10z"/><path d="m336.001 266.001h20c5.522 0 10-4.478 10-10s-4.478-10-10-10h-20c-5.522 0-10 4.478-10 10 0 5.523 4.477 10 10 10z"/><path d="m416.001 266.001h20c5.522 0 10-4.478 10-10s-4.478-10-10-10h-20c-5.522 0-10 4.478-10 10 0 5.523 4.477 10 10 10z"/><path d="m436.001 306.001h-180c-5.522 0-10 4.478-10 10s4.478 10 10 10h180c5.522 0 10-4.478 10-10s-4.478-10-10-10z"/><path d="m436.001 366.001h-180c-5.522 0-10 4.478-10 10s4.478 10 10 10h180c5.522 0 10-4.478 10-10s-4.478-10-10-10z"/><path d="m436.001 426.001h-180c-5.522 0-10 4.478-10 10s4.478 10 10 10h180c5.522 0 10-4.478 10-10s-4.478-10-10-10z"/></g><path d="m176.001 286.001c0-22.056-17.944-40-40-40s-40 17.944-40 40 17.944 40 40 40 40-17.944 40-40z" fill="#fff"/><path d="m196.001 426.001h-120c-5.522 0-10 4.478-10 10s4.478 10 10 10h120c5.522 0 10-4.478 10-10s-4.478-10-10-10z" fill="#b578d3"/><path d="m79.6 386.001h112.801c3.229 0 6.258-1.559 8.135-4.185 1.878-2.626 2.372-5.996 1.327-9.051-9.563-27.972-36.032-46.765-65.862-46.765s-56.299 18.793-65.862 46.765c-1.045 3.055-.551 6.425 1.327 9.051 1.876 2.627 4.906 4.185 8.134 4.185z" fill="#fff"/></g></g></svg>